<svg width="24" height="25" viewBox="0 0 24 25" fill="none" xmlns="http://www.w3.org/2000/svg">
<path d="M22.2234 0.953125H1.77187C0.792187 0.953125 0 1.72656 0 2.68281V23.2188C0 24.175 0.792187 24.9531 1.77187 24.9531H22.2234C23.2031 24.9531 24 24.175 24 23.2234V2.68281C24 1.72656 23.2031 0.953125 22.2234 0.953125ZM7.12031 21.4047H3.55781V9.94844H7.12031V21.4047ZM5.33906 8.3875C4.19531 8.3875 3.27188 7.46406 3.27188 6.325C3.27188 5.18594 4.19531 4.2625 5.33906 4.2625C6.47813 4.2625 7.40156 5.18594 7.40156 6.325C7.40156 7.45937 6.47813 8.3875 5.33906 8.3875ZM20.4516 21.4047H16.8937V15.8359C16.8937 14.5094 16.8703 12.7984 15.0422 12.7984C13.1906 12.7984 12.9094 14.2469 12.9094 15.7422V21.4047H9.35625V9.94844H12.7687V11.5141H12.8156C13.2891 10.6141 14.4516 9.6625 16.1813 9.6625C19.7859 9.6625 20.4516 12.0344 20.4516 15.1188V21.4047V21.4047Z" fill="#1B6FA0"/>
</svg>
