<svg width="272" height="76" viewBox="0 0 272 76" fill="none" xmlns="http://www.w3.org/2000/svg">
<path d="M0.442558 0C2.21118 0.183936 3.75474 0.649563 5.41665 1.27244C5.67431 1.36892 5.93198 1.46539 6.19746 1.5648C12.5476 4.00104 17.6604 7.89733 20.5421 14.1743C21.5947 16.7389 22.0121 19.4744 22.344 22.2099C22.7119 22.2106 22.7119 22.2106 23.0872 22.2112C29.0522 22.2227 35.0172 22.2409 40.9821 22.2666C43.8667 22.2789 46.7513 22.2889 49.6359 22.2935C52.1498 22.2975 54.6637 22.3058 57.1776 22.3193C58.5089 22.3263 59.8403 22.3311 61.1717 22.3308C62.4245 22.3305 63.6772 22.336 64.93 22.346C65.3901 22.3486 65.8502 22.3491 66.3103 22.3474C66.938 22.3454 67.5657 22.3516 68.1934 22.3583C68.7205 22.36 68.7205 22.36 69.2584 22.3617C70.3544 22.5528 70.7193 22.8814 71.3908 23.7522C71.9809 26.6432 71.0351 30.0038 70.5232 32.8714C70.3932 33.6145 70.264 34.3577 70.1349 35.101C70.0505 35.5866 69.9658 36.0722 69.8807 36.5577C69.6512 37.8764 69.4423 39.1946 69.2652 40.5217C69.2102 40.9255 69.2102 40.9255 69.1541 41.3374C69.0928 41.8033 69.036 42.2699 68.9853 42.7371C68.7647 44.3634 68.2248 45.1569 67.0722 46.2706C66.2026 46.6066 65.4932 46.5358 64.6044 46.2706C63.3864 45.2556 63.3864 45.2556 63.0621 44.4198C62.9195 42.3368 63.2719 40.3579 63.6212 38.3082C63.7346 37.6246 63.8478 36.941 63.961 36.2573C64.0175 35.919 64.0741 35.5808 64.1324 35.2322C64.2849 34.3071 64.4309 33.3813 64.5731 32.4545C64.6145 32.1848 64.656 31.9151 64.6986 31.6373C64.7756 31.1337 64.852 30.6299 64.9277 30.1261C65.1873 28.4475 65.1873 28.4475 65.5298 27.7624C51.1767 27.7624 36.8236 27.7624 22.0355 27.7624C22.7481 30.8162 23.4606 33.8701 24.1948 37.0165C25.0407 40.9639 25.0407 40.9639 25.4287 42.8774C26.2038 42.1207 26.9093 41.3491 27.588 40.506C31.3111 36.2624 36.3856 34.1874 41.7776 33.0063C42.0735 32.9403 42.3693 32.8743 42.6741 32.8063C45.6282 32.2338 48.6492 32.1936 51.6487 32.0809C50.9478 38.6855 47.5992 45.751 42.703 50.2614C38.7247 53.4646 34.514 54.9512 29.4388 54.5993C29.9037 53.2376 30.6404 52.1453 31.4824 50.994C31.6202 50.8039 31.7579 50.6137 31.8999 50.4178C33.7199 47.9218 35.6528 45.5608 37.7434 43.2859C38.3979 42.5539 39.0117 41.7985 39.6183 41.0266C39.3595 41.2681 39.3595 41.2681 39.0954 41.5146C37.5883 42.8981 36.0531 44.1954 34.4322 45.4416C32.1272 47.2177 29.9547 49.1479 27.8964 51.2061C27.9164 51.6956 27.9588 52.1843 28.0121 52.6713C28.0399 52.937 28.0678 53.2026 28.0965 53.4763C28.2023 54.2714 28.3525 55.0476 28.5134 55.8332C28.7027 55.8336 28.8921 55.8341 29.0872 55.8345C33.6957 55.846 38.3041 55.8642 42.9125 55.8899C45.1411 55.9022 47.3697 55.9122 49.5983 55.9168C51.541 55.9208 53.4835 55.9291 55.4261 55.9426C56.4546 55.9495 57.4829 55.9537 58.5115 55.9541C59.66 55.9548 60.8083 55.9631 61.9567 55.9732C62.2973 55.9717 62.6379 55.9701 62.9888 55.9685C65.2836 56 65.2836 56 66.5051 56.7028C67.2999 57.6455 67.3807 58.3125 67.3807 59.5348C67.0065 60.4209 66.7226 60.909 65.9063 61.4225C65.0869 61.7474 64.456 61.7743 63.5748 61.7787C63.2409 61.7818 62.9071 61.7848 62.5631 61.788C62.1984 61.7882 61.8336 61.7884 61.4578 61.7886C60.8798 61.7925 60.8798 61.7925 60.2902 61.7964C59.2341 61.8026 58.178 61.8059 57.1219 61.8075C56.4617 61.8086 55.8016 61.8105 55.1414 61.8127C52.8371 61.8203 50.5329 61.8243 48.2287 61.8254C46.0825 61.8265 43.9365 61.8357 41.7903 61.8486C39.9463 61.8593 38.1023 61.8641 36.2582 61.8643C35.1574 61.8646 34.0568 61.8673 32.9561 61.876C31.728 61.8856 30.5002 61.8829 29.2721 61.879C28.7268 61.8859 28.7268 61.8859 28.1705 61.8929C25.4225 61.8682 25.4225 61.8682 24.2864 60.9665C23.4924 60.0536 23.2454 59.4693 23.0007 58.2913C22.8801 57.7412 22.8801 57.7412 22.757 57.18C22.678 56.7865 22.5989 56.3929 22.5175 55.9874C22.429 55.5744 22.3397 55.1616 22.2496 54.749C22.1102 54.1092 21.9714 53.4694 21.8353 52.8289C21.3629 50.6057 20.8237 48.4006 20.2811 46.1935C19.4891 42.9372 18.7314 39.6755 18.0254 36.3995C17.7983 36.5073 17.5713 36.615 17.3373 36.7261C17.0363 36.8664 16.7353 37.0068 16.4252 37.1514C16.1282 37.291 15.8311 37.4306 15.5251 37.5744C12.8575 38.6724 10.1883 38.5087 7.5422 37.4503C6.43626 36.9345 5.36398 36.3768 4.29844 35.7826C4.11344 35.6802 3.92844 35.5778 3.73783 35.4723C2.71339 34.8781 1.99828 34.3233 1.36797 33.3148C5.48839 30.9239 9.12373 29.3686 13.9683 30.5097C14.9224 30.8004 15.8586 31.1116 16.7915 31.464C16.6145 30.2659 16.3784 29.1727 15.8661 28.0708C15.2189 27.6521 14.6582 27.5325 13.908 27.3623C9.64645 26.2326 6.34561 22.4783 4.07673 18.889C1.40089 14.0302 0.378503 8.8971 0.423279 3.39318C0.425366 2.90229 0.425366 2.90229 0.427496 2.40149C0.431102 1.60098 0.436156 0.800497 0.442558 0Z" fill="#433F3E"/>
<path d="M0.44254 0C2.21116 0.183936 3.75472 0.649563 5.41663 1.27244C5.6743 1.36892 5.93197 1.46539 6.19744 1.5648C12.5483 4.00134 17.6607 7.89777 20.5421 14.1756C21.6354 16.8338 22.0699 19.6737 22.344 22.5184C22.1713 22.5212 21.9986 22.5241 21.8206 22.5271C21.0372 22.5437 20.2544 22.5695 19.4713 22.5955C19.1995 22.5998 18.9277 22.6042 18.6477 22.6087C17.1259 22.639 17.1259 22.639 15.8275 23.3377C15.4716 24.291 15.5336 24.9814 15.654 25.9886C15.691 26.3211 15.728 26.6535 15.7661 26.996C15.7991 27.2489 15.8321 27.5018 15.8661 27.7624C11.793 27.5813 8.70455 24.4487 6.07213 21.6315C1.80066 16.5579 0.37078 9.84435 0.423261 3.39318C0.425349 2.90229 0.425349 2.90229 0.427478 2.40149C0.431084 1.60098 0.436139 0.800497 0.44254 0Z" fill="#60BE74"/>
<path d="M51.6482 32.0807C50.9473 38.6852 47.5987 45.7508 42.7025 50.2612C38.7243 53.4644 34.5135 54.9509 29.4383 54.599C29.9033 53.2374 30.64 52.1451 31.4819 50.9938C31.6197 50.8036 31.7574 50.6135 31.8994 50.4175C33.7194 47.9216 35.6523 45.5605 37.7429 43.2856C38.3974 42.5536 39.0112 41.7983 39.6178 41.0263C39.4453 41.1874 39.2727 41.3484 39.0949 41.5144C37.5878 42.8979 36.0525 44.195 34.4317 45.4413C32.895 46.6282 31.4253 47.8654 29.9974 49.1815C29.7473 49.4111 29.7473 49.4111 29.4922 49.6452C28.6597 50.4235 27.9479 51.2113 27.279 52.1313C26.9506 50.9181 26.6429 49.7016 26.3527 48.4787C26.2515 48.0646 26.145 47.6517 26.0328 47.2403C25.1102 43.8354 25.1102 43.8354 25.8859 42.2504C26.5118 41.4597 27.154 40.7826 27.896 40.1009C28.1195 39.8758 28.3431 39.6508 28.5735 39.4188C32.0136 36.0053 37.0565 33.825 41.7771 33.0061C42.0618 32.9528 42.3466 32.8995 42.6399 32.8446C45.6304 32.3101 48.6099 32.0223 51.6482 32.0807Z" fill="#60BE74"/>
<path d="M36.457 64.5483C38.4254 65.6082 39.496 66.678 40.2358 68.7898C40.446 70.4713 40.174 71.9603 39.3103 73.4168C37.9789 74.8839 36.8727 75.7554 34.8893 75.9581C32.9739 76.0154 31.9112 75.803 30.3647 74.6507C28.9522 73.2456 28.4653 72.084 28.4175 70.1008C28.4346 68.3307 28.6692 67.4127 29.7478 66.0135C31.8274 64.0899 33.7633 63.6504 36.457 64.5483Z" fill="#433F3E"/>
<path d="M59.5716 64.4702C60.997 65.3308 62.4145 66.5518 62.9624 68.1766C63.2858 70.18 63.1166 71.6233 62.1358 73.4158C60.9563 74.8185 59.7934 75.755 57.9353 75.9824C56.0877 76.0575 54.9199 75.9357 53.4986 74.6497C52.0159 73.138 51.3216 71.847 51.2236 69.7335C51.2611 68.2478 51.5671 67.4561 52.5732 66.321C54.8073 64.2063 56.4986 63.6368 59.5716 64.4702Z" fill="#433F3E"/>
<path d="M16.7927 31.464C17.4674 32.4762 17.5775 33.1085 17.7566 34.2981C17.8342 34.8009 17.8342 34.8009 17.9133 35.3139C17.9694 35.6986 17.9694 35.6986 18.0266 36.0911C15.6911 37.8734 12.9334 38.6404 10.0063 38.2504C7.95544 37.7571 6.12995 36.8034 4.29961 35.7826C4.11461 35.6802 3.92961 35.5778 3.739 35.4724C2.71456 34.8781 1.99945 34.3234 1.36914 33.3149C6.36698 30.4148 11.2045 28.8655 16.7927 31.464Z" fill="#60BE74"/>
<path d="M24.8118 9.87109C27.8395 10.9706 30.0144 13.2634 31.6283 15.9971C32.5244 17.9477 32.2946 20.1127 32.2151 22.2099C31.5025 22.2099 30.79 22.2099 30.0558 22.2099C28.6816 19.0034 28.6816 19.0034 27.2796 15.732C27.8741 17.4025 27.8741 17.4025 28.47 19.0725C28.5444 19.2823 28.6188 19.4922 28.6954 19.7084C28.7713 19.9216 28.8472 20.1349 28.9255 20.3546C29.1277 20.968 29.2904 21.5815 29.4389 22.2099C28.4348 22.3505 27.6364 22.4542 26.7675 21.8593C24.3885 19.3464 24.0561 16.0972 24.0912 12.7847C24.1943 11.7275 24.4337 10.8603 24.8118 9.87109Z" fill="#60BE74"/>
<path d="M6.9209 8.94629C8.11751 10.0484 9.02474 11.3121 9.96705 12.6287C10.1387 12.8672 10.3104 13.1057 10.4872 13.3515C12.5602 16.2541 14.5252 19.2298 16.4835 22.2105C16.0846 23.1003 15.6631 23.7134 14.9411 24.3698C14.8358 24.1543 14.7305 23.9388 14.622 23.7168C12.3603 19.1036 10.0331 14.588 7.29926 10.2344C6.9209 9.56323 6.9209 9.56323 6.9209 8.94629Z" fill="#F5F8F1"/>
<path d="M34.0475 68.4033C34.9922 68.4804 34.9922 68.4804 35.9176 69.0974C36.0422 70.0729 36.0856 70.683 35.5513 71.5266C34.7901 71.999 34.3305 72.0057 33.4499 71.8736C32.8908 71.5266 32.8908 71.5266 32.5244 70.9482C32.428 70.0035 32.428 70.0035 32.5244 69.0974C33.1414 68.4804 33.1414 68.4804 34.0475 68.4033Z" fill="#F4F8F8"/>
<path d="M57.1812 68.3838C58.1259 68.4802 58.1259 68.4802 58.7043 68.8465C59.1816 69.6155 59.2068 70.0595 59.0513 70.948C58.5501 71.5263 58.5501 71.5263 57.8175 71.8734C56.8342 71.8155 56.8342 71.8155 55.9666 71.5649C55.5406 70.7127 55.5993 70.0388 55.6582 69.0971C56.2751 68.4802 56.2751 68.4802 57.1812 68.3838Z" fill="#F2F6F6"/>
<path d="M8.15576 33.6225C10.296 33.5495 12.3769 33.6433 14.4987 33.9117C14.7116 33.9385 14.9246 33.9653 15.1439 33.9929C16.0426 34.1131 16.8558 34.2604 17.7183 34.5479C17.9304 35.1841 17.9304 35.1841 18.0268 35.7818C17.8457 35.7449 17.6647 35.7079 17.4781 35.6699C15.4417 35.2581 13.4007 34.8779 11.3561 34.5093C11.0464 34.4533 10.7366 34.3972 10.4175 34.3394C9.66362 34.203 8.90971 34.0669 8.15576 33.931C8.15576 33.8292 8.15576 33.7274 8.15576 33.6225Z" fill="#FAFAFA"/>
<path d="M26.9712 15.1152C27.9257 16.24 28.4559 17.495 29.0341 18.8362C29.1329 19.0582 29.2317 19.2803 29.3335 19.5091C29.7451 20.4542 30.0559 21.1683 30.0559 22.2101C29.8523 22.2101 29.6487 22.2101 29.439 22.2101C26.9712 16.3577 26.9712 16.3577 26.9712 15.1152Z" fill="#ECF1D7"/>
<path d="M89.8821 32V8.16H94.0421L102.97 20.288H100.986L109.722 8.16H113.882V32H109.498V13.12L111.194 13.536L102.138 25.6H101.626L92.7941 13.536L94.2341 13.12V32H89.8821ZM118.445 32V8.16H134.285V12H122.797V18.112H133.645V21.952H122.797V28.16H134.285V32H118.445ZM137.476 32V8.16H146.34C147.961 8.16 149.391 8.45867 150.628 9.056C151.887 9.632 152.868 10.4853 153.572 11.616C154.276 12.7253 154.628 14.08 154.628 15.68C154.628 17.3227 154.233 18.72 153.444 19.872C152.676 21.024 151.631 21.8773 150.308 22.432L155.78 32H150.852L144.996 21.536L147.812 23.2H141.828V32H137.476ZM141.828 19.36H146.404C147.193 19.36 147.876 19.2107 148.452 18.912C149.028 18.592 149.476 18.1547 149.796 17.6C150.116 17.0453 150.276 16.4053 150.276 15.68C150.276 14.9333 150.116 14.2933 149.796 13.76C149.476 13.2053 149.028 12.7787 148.452 12.48C147.876 12.16 147.193 12 146.404 12H141.828V19.36ZM169.832 32.384C168.125 32.384 166.547 32.0747 165.096 31.456C163.667 30.8373 162.408 29.9733 161.32 28.864C160.253 27.7547 159.421 26.4533 158.824 24.96C158.227 23.4667 157.928 21.8347 157.928 20.064C157.928 18.2933 158.216 16.6613 158.792 15.168C159.389 13.6533 160.221 12.352 161.288 11.264C162.376 10.1547 163.645 9.30133 165.096 8.704C166.547 8.08533 168.125 7.776 169.832 7.776C171.539 7.776 173.064 8.064 174.408 8.64C175.773 9.216 176.925 9.984 177.864 10.944C178.803 11.8827 179.475 12.9173 179.88 14.048L175.976 15.872C175.528 14.6773 174.771 13.696 173.704 12.928C172.637 12.1387 171.347 11.744 169.832 11.744C168.339 11.744 167.016 12.096 165.864 12.8C164.733 13.504 163.848 14.4747 163.208 15.712C162.589 16.9493 162.28 18.4 162.28 20.064C162.28 21.728 162.589 23.1893 163.208 24.448C163.848 25.6853 164.733 26.656 165.864 27.36C167.016 28.064 168.339 28.416 169.832 28.416C171.347 28.416 172.637 28.032 173.704 27.264C174.771 26.4747 175.528 25.4827 175.976 24.288L179.88 26.112C179.475 27.2427 178.803 28.288 177.864 29.248C176.925 30.1867 175.773 30.944 174.408 31.52C173.064 32.096 171.539 32.384 169.832 32.384ZM181.461 32L189.685 8.16H195.317L203.541 32H198.805L197.109 26.88H187.893L186.165 32H181.461ZM189.141 23.04H195.861L191.893 11.168H193.109L189.141 23.04ZM206.195 32V8.16H213.971C216.488 8.16 218.675 8.672 220.531 9.696C222.408 10.6987 223.859 12.096 224.883 13.888C225.907 15.6587 226.419 17.7173 226.419 20.064C226.419 22.3893 225.907 24.4587 224.883 26.272C223.859 28.064 222.408 29.472 220.531 30.496C218.675 31.4987 216.488 32 213.971 32H206.195ZM210.547 28.16H214.067C215.688 28.16 217.085 27.8293 218.259 27.168C219.453 26.4853 220.381 25.5467 221.043 24.352C221.704 23.136 222.035 21.7067 222.035 20.064C222.035 18.4 221.704 16.9707 221.043 15.776C220.381 14.5813 219.453 13.6533 218.259 12.992C217.085 12.3307 215.688 12 214.067 12H210.547V28.16ZM241.626 32.384C239.877 32.384 238.245 32.0747 236.73 31.456C235.215 30.8373 233.893 29.9733 232.762 28.864C231.631 27.7547 230.746 26.4533 230.106 24.96C229.487 23.4453 229.178 21.8133 229.178 20.064C229.178 18.2933 229.487 16.6613 230.106 15.168C230.725 13.6747 231.599 12.3733 232.73 11.264C233.861 10.1547 235.183 9.30133 236.698 8.704C238.213 8.08533 239.855 7.776 241.626 7.776C243.397 7.776 245.039 8.08533 246.554 8.704C248.069 9.32266 249.391 10.1867 250.522 11.296C251.653 12.384 252.527 13.6747 253.146 15.168C253.786 16.6613 254.106 18.2933 254.106 20.064C254.106 21.8133 253.786 23.4453 253.146 24.96C252.506 26.4533 251.621 27.7547 250.49 28.864C249.359 29.9733 248.037 30.8373 246.522 31.456C245.029 32.0747 243.397 32.384 241.626 32.384ZM241.626 28.416C242.799 28.416 243.877 28.2133 244.858 27.808C245.839 27.3813 246.693 26.7947 247.418 26.048C248.165 25.3013 248.73 24.416 249.114 23.392C249.519 22.368 249.722 21.2587 249.722 20.064C249.722 18.8693 249.519 17.7707 249.114 16.768C248.73 15.744 248.165 14.8587 247.418 14.112C246.693 13.344 245.839 12.7573 244.858 12.352C243.877 11.9467 242.799 11.744 241.626 11.744C240.474 11.744 239.407 11.9467 238.426 12.352C237.445 12.7573 236.581 13.344 235.834 14.112C235.109 14.8587 234.543 15.744 234.138 16.768C233.733 17.7707 233.53 18.8693 233.53 20.064C233.53 21.2587 233.733 22.368 234.138 23.392C234.543 24.416 235.109 25.3013 235.834 26.048C236.581 26.7947 237.445 27.3813 238.426 27.808C239.407 28.2133 240.474 28.416 241.626 28.416Z" fill="#2B2928"/>
<path d="M101.626 70.384C99.8768 70.384 98.2448 70.0747 96.7301 69.456C95.2155 68.8373 93.8928 67.9733 92.7621 66.864C91.6315 65.7547 90.7461 64.4533 90.1061 62.96C89.4875 61.4453 89.1781 59.8133 89.1781 58.064C89.1781 56.2933 89.4875 54.6613 90.1061 53.168C90.7248 51.6747 91.5995 50.3733 92.7301 49.264C93.8608 48.1547 95.1835 47.3013 96.6981 46.704C98.2128 46.0853 99.8555 45.776 101.626 45.776C103.397 45.776 105.039 46.0853 106.554 46.704C108.069 47.3227 109.391 48.1867 110.522 49.296C111.653 50.384 112.527 51.6747 113.146 53.168C113.786 54.6613 114.106 56.2933 114.106 58.064C114.106 59.8133 113.786 61.4453 113.146 62.96C112.506 64.4533 111.621 65.7547 110.49 66.864C109.359 67.9733 108.037 68.8373 106.522 69.456C105.029 70.0747 103.397 70.384 101.626 70.384ZM101.626 66.416C102.799 66.416 103.877 66.2133 104.858 65.808C105.839 65.3813 106.693 64.7947 107.418 64.048C108.165 63.3013 108.73 62.416 109.114 61.392C109.519 60.368 109.722 59.2587 109.722 58.064C109.722 56.8693 109.519 55.7707 109.114 54.768C108.73 53.744 108.165 52.8587 107.418 52.112C106.693 51.344 105.839 50.7573 104.858 50.352C103.877 49.9467 102.799 49.744 101.626 49.744C100.474 49.744 99.4075 49.9467 98.4261 50.352C97.4448 50.7573 96.5808 51.344 95.8341 52.112C95.1088 52.8587 94.5435 53.744 94.1381 54.768C93.7328 55.7707 93.5301 56.8693 93.5301 58.064C93.5301 59.2587 93.7328 60.368 94.1381 61.392C94.5435 62.416 95.1088 63.3013 95.8341 64.048C96.5808 64.7947 97.4448 65.3813 98.4261 65.808C99.4075 66.2133 100.474 66.416 101.626 66.416ZM117.976 70V46.16H126.84C128.461 46.16 129.891 46.4587 131.128 47.056C132.387 47.632 133.368 48.4853 134.072 49.616C134.776 50.7253 135.128 52.08 135.128 53.68C135.128 55.3227 134.733 56.72 133.944 57.872C133.176 59.024 132.131 59.8773 130.808 60.432L136.28 70H131.352L125.496 59.536L128.312 61.2H122.328V70H117.976ZM122.328 57.36H126.904C127.693 57.36 128.376 57.2107 128.952 56.912C129.528 56.592 129.976 56.1547 130.296 55.6C130.616 55.0453 130.776 54.4053 130.776 53.68C130.776 52.9333 130.616 52.2933 130.296 51.76C129.976 51.2053 129.528 50.7787 128.952 50.48C128.376 50.16 127.693 50 126.904 50H122.328V57.36ZM150.428 70.384C148.721 70.384 147.143 70.0747 145.692 69.456C144.241 68.8373 142.972 67.9733 141.884 66.864C140.796 65.7547 139.943 64.4533 139.324 62.96C138.727 61.4667 138.428 59.8347 138.428 58.064C138.428 56.2933 138.716 54.6613 139.292 53.168C139.889 51.6533 140.721 50.352 141.788 49.264C142.876 48.1547 144.145 47.3013 145.596 46.704C147.047 46.0853 148.625 45.776 150.332 45.776C152.039 45.776 153.564 46.064 154.908 46.64C156.273 47.216 157.425 47.984 158.364 48.944C159.303 49.8827 159.975 50.9173 160.38 52.048L156.508 53.904C156.06 52.6667 155.303 51.664 154.236 50.896C153.169 50.128 151.868 49.744 150.332 49.744C148.839 49.744 147.516 50.096 146.364 50.8C145.233 51.504 144.348 52.4747 143.708 53.712C143.089 54.9493 142.78 56.4 142.78 58.064C142.78 59.728 143.1 61.1893 143.74 62.448C144.401 63.6853 145.308 64.656 146.46 65.36C147.612 66.064 148.935 66.416 150.428 66.416C151.644 66.416 152.764 66.1813 153.788 65.712C154.812 65.2213 155.633 64.5387 156.252 63.664C156.871 62.768 157.18 61.712 157.18 60.496V58.672L159.164 60.4H150.332V56.72H161.532V59.12C161.532 60.9547 161.223 62.576 160.604 63.984C159.985 65.392 159.143 66.576 158.076 67.536C157.031 68.4747 155.847 69.1893 154.524 69.68C153.201 70.1493 151.836 70.384 150.428 70.384ZM162.774 70L170.998 46.16H176.63L184.854 70H180.118L178.422 64.88H169.206L167.478 70H162.774ZM170.454 61.04H177.174L173.206 49.168H174.422L170.454 61.04ZM171.766 43.056L173.846 37.52H179.286L175.894 43.056H171.766ZM187.507 70V46.16H190.899L204.019 63.824L202.259 64.176V46.16H206.611V70H203.187L190.259 52.208L191.859 51.856V70H187.507ZM211.226 70V46.16H215.578V70H211.226ZM231.363 70.384C229.657 70.384 228.078 70.0747 226.627 69.456C225.198 68.8373 223.939 67.9733 222.851 66.864C221.785 65.7547 220.953 64.4533 220.355 62.96C219.758 61.4667 219.459 59.8347 219.459 58.064C219.459 56.2933 219.747 54.6613 220.323 53.168C220.921 51.6533 221.753 50.352 222.819 49.264C223.907 48.1547 225.177 47.3013 226.627 46.704C228.078 46.0853 229.657 45.776 231.363 45.776C233.07 45.776 234.595 46.064 235.939 46.64C237.305 47.216 238.457 47.984 239.395 48.944C240.334 49.8827 241.006 50.9173 241.411 52.048L237.507 53.872C237.059 52.6773 236.302 51.696 235.235 50.928C234.169 50.1387 232.878 49.744 231.363 49.744C229.87 49.744 228.547 50.096 227.395 50.8C226.265 51.504 225.379 52.4747 224.739 53.712C224.121 54.9493 223.811 56.4 223.811 58.064C223.811 59.728 224.121 61.1893 224.739 62.448C225.379 63.6853 226.265 64.656 227.395 65.36C228.547 66.064 229.87 66.416 231.363 66.416C232.878 66.416 234.169 66.032 235.235 65.264C236.302 64.4747 237.059 63.4827 237.507 62.288L241.411 64.112C241.006 65.2427 240.334 66.288 239.395 67.248C238.457 68.1867 237.305 68.944 235.939 69.52C234.595 70.096 233.07 70.384 231.363 70.384ZM256.689 70.384C254.939 70.384 253.307 70.0747 251.793 69.456C250.278 68.8373 248.955 67.9733 247.825 66.864C246.694 65.7547 245.809 64.4533 245.169 62.96C244.55 61.4453 244.241 59.8133 244.241 58.064C244.241 56.2933 244.55 54.6613 245.169 53.168C245.787 51.6747 246.662 50.3733 247.793 49.264C248.923 48.1547 250.246 47.3013 251.761 46.704C253.275 46.0853 254.918 45.776 256.689 45.776C258.459 45.776 260.102 46.0853 261.617 46.704C263.131 47.3227 264.454 48.1867 265.585 49.296C266.715 50.384 267.59 51.6747 268.209 53.168C268.849 54.6613 269.169 56.2933 269.169 58.064C269.169 59.8133 268.849 61.4453 268.209 62.96C267.569 64.4533 266.683 65.7547 265.553 66.864C264.422 67.9733 263.099 68.8373 261.585 69.456C260.091 70.0747 258.459 70.384 256.689 70.384ZM256.689 66.416C257.862 66.416 258.939 66.2133 259.921 65.808C260.902 65.3813 261.755 64.7947 262.481 64.048C263.227 63.3013 263.793 62.416 264.177 61.392C264.582 60.368 264.785 59.2587 264.785 58.064C264.785 56.8693 264.582 55.7707 264.177 54.768C263.793 53.744 263.227 52.8587 262.481 52.112C261.755 51.344 260.902 50.7573 259.921 50.352C258.939 49.9467 257.862 49.744 256.689 49.744C255.537 49.744 254.47 49.9467 253.489 50.352C252.507 50.7573 251.643 51.344 250.897 52.112C250.171 52.8587 249.606 53.744 249.201 54.768C248.795 55.7707 248.593 56.8693 248.593 58.064C248.593 59.2587 248.795 60.368 249.201 61.392C249.606 62.416 250.171 63.3013 250.897 64.048C251.643 64.7947 252.507 65.3813 253.489 65.808C254.47 66.2133 255.537 66.416 256.689 66.416Z" fill="#60BE74"/>
</svg>
