<svg width="272" height="76" viewBox="0 0 272 76" fill="none" xmlns="http://www.w3.org/2000/svg">
<path d="M0.020683 0C1.7893 0.183936 3.33287 0.649563 4.99477 1.27244C5.25244 1.36892 5.51011 1.46539 5.77559 1.5648C12.1257 4.00104 17.2386 7.89733 20.1202 14.1743C21.1728 16.7389 21.5902 19.4744 21.9221 22.2099C22.29 22.2106 22.29 22.2106 22.6654 22.2112C28.6304 22.2227 34.5953 22.2409 40.5603 22.2666C43.4449 22.2789 46.3294 22.2889 49.2141 22.2935C51.728 22.2975 54.2418 22.3058 56.7557 22.3193C58.0871 22.3263 59.4184 22.3311 60.7498 22.3308C62.0026 22.3305 63.2553 22.336 64.5081 22.346C64.9682 22.3486 65.4283 22.3491 65.8884 22.3474C66.5161 22.3454 67.1438 22.3516 67.7715 22.3583C68.2987 22.36 68.2987 22.36 68.8365 22.3617C69.9325 22.5528 70.2975 22.8814 70.9689 23.7522C71.559 26.6432 70.6132 30.0038 70.1013 32.8714C69.9713 33.6145 69.8421 34.3577 69.713 35.101C69.6287 35.5866 69.5439 36.0722 69.4589 36.5577C69.2294 37.8764 69.0204 39.1946 68.8434 40.5217C68.7884 40.9255 68.7884 40.9255 68.7323 41.3374C68.6709 41.8033 68.6141 42.2699 68.5634 42.7371C68.3429 44.3634 67.803 45.1569 66.6503 46.2706C65.7807 46.6066 65.0714 46.5358 64.1826 46.2706C62.9646 45.2556 62.9645 45.2556 62.6402 44.4198C62.4976 42.3368 62.85 40.3579 63.1993 38.3082C63.3127 37.6246 63.4259 36.941 63.5391 36.2573C63.5957 35.919 63.6522 35.5808 63.7105 35.2322C63.8631 34.3071 64.0091 33.3813 64.1512 32.4545C64.1927 32.1848 64.2341 31.9151 64.2768 31.6373C64.3538 31.1337 64.4301 30.6299 64.5059 30.1261C64.7654 28.4475 64.7654 28.4475 65.108 27.7623C50.7548 27.7623 36.4017 27.7623 21.6136 27.7623C22.3262 30.8162 23.0388 33.8701 23.7729 37.0165C24.6188 40.9639 24.6188 40.9639 25.0068 42.8774C25.7819 42.1207 26.4874 41.3491 27.1661 40.506C30.8892 36.2623 35.9637 34.1873 41.3557 33.0063C41.6516 32.9403 41.9474 32.8743 42.2522 32.8063C45.2063 32.2338 48.2274 32.1936 51.2268 32.0809C50.5259 38.6855 47.1773 45.751 42.2811 50.2614C38.3029 53.4646 34.0921 54.9512 29.0169 54.5993C29.4819 53.2376 30.2185 52.1453 31.0605 50.994C31.1983 50.8039 31.336 50.6137 31.478 50.4178C33.298 47.9218 35.2309 45.5608 37.3215 43.2859C37.976 42.5539 38.5898 41.7985 39.1964 41.0266C38.9376 41.2681 38.9376 41.2681 38.6735 41.5146C37.1664 42.8981 35.6312 44.1954 34.0103 45.4416C31.7053 47.2177 29.5328 49.1478 27.4746 51.2061C27.4945 51.6956 27.5369 52.1843 27.5902 52.6713C27.6181 52.937 27.6459 53.2026 27.6746 53.4763C27.7805 54.2714 27.9307 55.0475 28.0915 55.8332C28.2809 55.8336 28.4702 55.8341 28.6653 55.8345C33.2738 55.846 37.8822 55.8642 42.4906 55.8899C44.7192 55.9022 46.9478 55.9122 49.1765 55.9168C51.1191 55.9208 53.0616 55.9291 55.0042 55.9426C56.0327 55.9495 57.0611 55.9537 58.0896 55.954C59.2381 55.9548 60.3864 55.9631 61.5349 55.9732C61.8755 55.9717 62.216 55.9701 62.567 55.9685C64.8617 55.9999 64.8617 55.9999 66.0832 56.7028C66.878 57.6455 66.9588 58.3125 66.9588 59.5348C66.5847 60.4209 66.3008 60.9089 65.4844 61.4225C64.665 61.7474 64.0341 61.7743 63.1529 61.7787C62.819 61.7818 62.4852 61.7848 62.1412 61.788C61.7765 61.7882 61.4117 61.7884 61.0359 61.7886C60.458 61.7925 60.458 61.7925 59.8683 61.7964C58.8122 61.8026 57.7562 61.8059 56.7 61.8075C56.0399 61.8086 55.3797 61.8105 54.7195 61.8127C52.4153 61.8202 50.111 61.8243 47.8068 61.8254C45.6606 61.8265 43.5146 61.8357 41.3685 61.8486C39.5244 61.8593 37.6804 61.8641 35.8363 61.8643C34.7356 61.8646 33.6349 61.8673 32.5342 61.876C31.3061 61.8856 30.0783 61.8829 28.8502 61.879C28.3049 61.8859 28.3049 61.8859 27.7487 61.8929C25.0006 61.8682 25.0006 61.8682 23.8646 60.9665C23.0706 60.0535 22.8235 59.4693 22.5788 58.2913C22.4582 57.7412 22.4582 57.7412 22.3352 57.18C22.2561 56.7865 22.1771 56.3929 22.0956 55.9874C22.0071 55.5744 21.9178 55.1616 21.8277 54.749C21.6883 54.1092 21.5495 53.4694 21.4134 52.8289C20.9411 50.6057 20.4018 48.4006 19.8592 46.1935C19.0672 42.9372 18.3096 39.6755 17.6035 36.3995C17.3765 36.5073 17.1494 36.615 16.9155 36.7261C16.6145 36.8664 16.3134 37.0068 16.0033 37.1514C15.7063 37.291 15.4092 37.4306 15.1032 37.5744C12.4356 38.6724 9.7664 38.5087 7.12033 37.4503C6.01439 36.9345 4.94211 36.3768 3.87656 35.7826C3.69156 35.6802 3.50656 35.5778 3.31596 35.4723C2.29151 34.8781 1.57641 34.3233 0.946095 33.3148C5.06652 30.9239 8.70185 29.3686 13.5464 30.5097C14.5005 30.8004 15.4367 31.1116 16.3696 31.464C16.1927 30.2659 15.9566 29.1727 15.4442 28.0708C14.797 27.6521 14.2363 27.5325 13.4861 27.3623C9.22457 26.2326 5.92374 22.4783 3.65485 18.889C0.979012 14.0302 -0.0433717 8.8971 0.00140363 3.39318C0.00349123 2.90229 0.00349123 2.90229 0.005621 2.40149C0.00922693 1.60098 0.0142814 0.800497 0.020683 0Z" fill="#FAFAFA"/>
<path d="M0.0206655 0C1.78928 0.183936 3.33285 0.649563 4.99475 1.27244C5.25242 1.36892 5.51009 1.46539 5.77557 1.5648C12.1265 4.00134 17.2388 7.89777 20.1202 14.1756C21.2135 16.8338 21.6481 19.6737 21.9221 22.5183C21.7494 22.5212 21.5767 22.5241 21.3987 22.5271C20.6154 22.5437 19.8326 22.5695 19.0494 22.5955C18.7777 22.5998 18.5059 22.6042 18.2259 22.6087C16.704 22.639 16.704 22.639 15.4056 23.3377C15.0497 24.2911 15.1117 24.9814 15.2321 25.9886C15.2691 26.3211 15.3061 26.6535 15.3442 26.996C15.3772 27.2489 15.4102 27.5018 15.4442 27.7623C11.3711 27.5813 8.28268 24.4487 5.65025 21.6315C1.37879 16.5579 -0.0510953 9.84435 0.00138608 3.39318C0.00347368 2.90229 0.00347368 2.90229 0.00560345 2.40149C0.00920938 1.60098 0.0142639 0.800497 0.0206655 0Z" fill="#60BE74"/>
<path d="M51.2253 32.0807C50.5245 38.6852 47.1759 45.7508 42.2797 50.2612C38.3014 53.4644 34.0907 54.9509 29.0155 54.599C29.4804 53.2374 30.2171 52.1451 31.0591 50.9938C31.1968 50.8036 31.3346 50.6135 31.4765 50.4175C33.2966 47.9216 35.2294 45.5605 37.3201 43.2856C37.9746 42.5536 38.5884 41.7983 39.195 41.0263C39.0224 41.1874 38.8498 41.3484 38.672 41.5144C37.1649 42.8979 35.6296 44.195 34.0088 45.4413C32.4722 46.6282 31.0024 47.8654 29.5746 49.1815C29.3245 49.4111 29.3245 49.4111 29.0693 49.6452C28.2368 50.4235 27.5251 51.2113 26.8562 52.1313C26.5277 50.9181 26.2201 49.7016 25.9299 48.4787C25.8287 48.0646 25.7221 47.6517 25.6099 47.2403C24.6873 43.8354 24.6873 43.8354 25.4631 42.2504C26.0889 41.4597 26.7312 40.7826 27.4731 40.1009C27.6967 39.8758 27.9203 39.6508 28.1506 39.4188C31.5908 36.0053 36.6337 33.825 41.3543 33.0061C41.639 32.9528 41.9237 32.8995 42.217 32.8446C45.2075 32.3101 48.187 32.0223 51.2253 32.0807Z" fill="#60BE74"/>
<path d="M36.0356 64.5483C38.004 65.6082 39.0747 66.678 39.8144 68.7898C40.0246 70.4713 39.7526 71.9603 38.889 73.4168C37.5575 74.8839 36.4513 75.7554 34.468 75.9581C32.5525 76.0154 31.4898 75.803 29.9433 74.6507C28.5308 73.2456 28.0439 72.084 27.9961 70.1008C28.0132 68.3307 28.2478 67.4127 29.3264 66.0135C31.406 64.0899 33.3419 63.6504 36.0356 64.5483Z" fill="#FAFAFA"/>
<path d="M59.1488 64.4702C60.5742 65.3308 61.9916 66.5518 62.5395 68.1766C62.8629 70.18 62.6937 71.6233 61.7129 73.4158C60.5334 74.8185 59.3706 75.755 57.5124 75.9824C55.6648 76.0575 54.4971 75.9357 53.0758 74.6497C51.5931 73.138 50.8987 71.847 50.8008 69.7335C50.8382 68.2478 51.1442 67.4561 52.1503 66.321C54.3845 64.2063 56.0758 63.6368 59.1488 64.4702Z" fill="#FAFAFA"/>
<path d="M16.3708 31.464C17.0455 32.4762 17.1557 33.1085 17.3348 34.2981C17.4123 34.8009 17.4123 34.8009 17.4914 35.3139C17.5475 35.6986 17.5475 35.6986 17.6047 36.0911C15.2692 37.8734 12.5116 38.6404 9.58444 38.2504C7.53357 37.7571 5.70808 36.8034 3.87774 35.7826C3.69273 35.6802 3.50773 35.5778 3.31713 35.4724C2.29268 34.8781 1.57758 34.3234 0.947266 33.3149C5.9451 30.4148 10.7827 28.8655 16.3708 31.464Z" fill="#60BE74"/>
<path d="M24.3909 9.87109C27.4186 10.9706 29.5935 13.2634 31.2074 15.9971C32.1035 17.9477 31.8737 20.1127 31.7942 22.2099C31.0816 22.2099 30.3691 22.2099 29.6349 22.2099C28.2607 19.0034 28.2607 19.0034 26.8587 15.732C27.4532 17.4025 27.4532 17.4025 28.0491 19.0725C28.1235 19.2823 28.1979 19.4922 28.2745 19.7084C28.3504 19.9216 28.4263 20.1349 28.5046 20.3546C28.7068 20.968 28.8695 21.5815 29.018 22.2099C28.0139 22.3505 27.2155 22.4542 26.3466 21.8593C23.9676 19.3464 23.6352 16.0972 23.6703 12.7847C23.7734 11.7275 24.0128 10.8603 24.3909 9.87109Z" fill="#60BE74"/>
<path d="M6.5 8.94629C7.69661 10.0484 8.60384 11.3121 9.54615 12.6287C9.7178 12.8672 9.88946 13.1057 10.0663 13.3515C12.1393 16.2541 14.1043 19.2298 16.0626 22.2105C15.6637 23.1003 15.2422 23.7134 14.5202 24.3698C14.4149 24.1543 14.3096 23.9388 14.2011 23.7168C11.9394 19.1036 9.61217 14.588 6.87836 10.2344C6.5 9.56323 6.5 9.56323 6.5 8.94629Z" fill="#F5F8F1"/>
<path d="M33.6266 68.4033C34.5713 68.4804 34.5713 68.4804 35.4967 69.0974C35.6213 70.0729 35.6647 70.683 35.1304 71.5266C34.3692 71.999 33.9096 72.0057 33.029 71.8736C32.4699 71.5266 32.4699 71.5266 32.1035 70.9482C32.0072 70.0035 32.0072 70.0035 32.1035 69.0974C32.7205 68.4804 32.7205 68.4804 33.6266 68.4033Z" fill="#383A39"/>
<path d="M56.7594 68.3838C57.7041 68.4802 57.7041 68.4802 58.2824 68.8465C58.7597 69.6155 58.785 70.0595 58.6295 70.948C58.1282 71.5263 58.1282 71.5263 57.3956 71.8734C56.4123 71.8155 56.4123 71.8155 55.5448 71.5649C55.1187 70.7127 55.1774 70.0388 55.2363 69.0971C55.8532 68.4802 55.8532 68.4802 56.7594 68.3838Z" fill="#383A39"/>
<path d="M7.73438 33.6225C9.8746 33.5495 11.9555 33.6433 14.0773 33.9117C14.2902 33.9385 14.5032 33.9653 14.7226 33.9929C15.6212 34.1131 16.4344 34.2604 17.297 34.5479C17.509 35.1841 17.509 35.1841 17.6054 35.7818C17.4244 35.7449 17.2433 35.7079 17.0567 35.6699C15.0204 35.2581 12.9793 34.8779 10.9348 34.5093C10.625 34.4533 10.3152 34.3972 9.99609 34.3394C9.24223 34.203 8.48833 34.0669 7.73438 33.931C7.73438 33.8292 7.73438 33.7274 7.73438 33.6225Z" fill="#E7F0CF"/>
<path d="M26.5488 15.1152C27.5033 16.24 28.0335 17.495 28.6117 18.8362C28.7105 19.0582 28.8094 19.2803 28.9112 19.5091C29.3227 20.4542 29.6335 21.1683 29.6335 22.2101C29.4299 22.2101 29.2264 22.2101 29.0166 22.2101C26.5488 16.3577 26.5488 16.3577 26.5488 15.1152Z" fill="#ECF1D7"/>
<path d="M89.4603 32V8.16H93.6203L102.548 20.288H100.564L109.3 8.16H113.46V32H109.076V13.12L110.772 13.536L101.716 25.6H101.204L92.3723 13.536L93.8123 13.12V32H89.4603ZM118.023 32V8.16H133.863V12H122.375V18.112H133.223V21.952H122.375V28.16H133.863V32H118.023ZM137.054 32V8.16H145.918C147.539 8.16 148.969 8.45867 150.206 9.056C151.465 9.632 152.446 10.4853 153.15 11.616C153.854 12.7253 154.206 14.08 154.206 15.68C154.206 17.3227 153.811 18.72 153.022 19.872C152.254 21.024 151.209 21.8773 149.886 22.432L155.358 32H150.43L144.574 21.536L147.39 23.2H141.406V32H137.054ZM141.406 19.36H145.982C146.771 19.36 147.454 19.2107 148.03 18.912C148.606 18.592 149.054 18.1547 149.374 17.6C149.694 17.0453 149.854 16.4053 149.854 15.68C149.854 14.9333 149.694 14.2933 149.374 13.76C149.054 13.2053 148.606 12.7787 148.03 12.48C147.454 12.16 146.771 12 145.982 12H141.406V19.36ZM169.41 32.384C167.704 32.384 166.125 32.0747 164.674 31.456C163.245 30.8373 161.986 29.9733 160.898 28.864C159.832 27.7547 159 26.4533 158.402 24.96C157.805 23.4667 157.506 21.8347 157.506 20.064C157.506 18.2933 157.794 16.6613 158.37 15.168C158.968 13.6533 159.8 12.352 160.866 11.264C161.954 10.1547 163.224 9.30133 164.674 8.704C166.125 8.08533 167.704 7.776 169.41 7.776C171.117 7.776 172.642 8.064 173.986 8.64C175.352 9.216 176.504 9.984 177.442 10.944C178.381 11.8827 179.053 12.9173 179.458 14.048L175.554 15.872C175.106 14.6773 174.349 13.696 173.282 12.928C172.216 12.1387 170.925 11.744 169.41 11.744C167.917 11.744 166.594 12.096 165.442 12.8C164.312 13.504 163.426 14.4747 162.786 15.712C162.168 16.9493 161.858 18.4 161.858 20.064C161.858 21.728 162.168 23.1893 162.786 24.448C163.426 25.6853 164.312 26.656 165.442 27.36C166.594 28.064 167.917 28.416 169.41 28.416C170.925 28.416 172.216 28.032 173.282 27.264C174.349 26.4747 175.106 25.4827 175.554 24.288L179.458 26.112C179.053 27.2427 178.381 28.288 177.442 29.248C176.504 30.1867 175.352 30.944 173.986 31.52C172.642 32.096 171.117 32.384 169.41 32.384ZM181.04 32L189.264 8.16H194.896L203.12 32H198.384L196.688 26.88H187.472L185.744 32H181.04ZM188.72 23.04H195.44L191.472 11.168H192.688L188.72 23.04ZM205.773 32V8.16H213.549C216.066 8.16 218.253 8.672 220.109 9.696C221.986 10.6987 223.437 12.096 224.461 13.888C225.485 15.6587 225.997 17.7173 225.997 20.064C225.997 22.3893 225.485 24.4587 224.461 26.272C223.437 28.064 221.986 29.472 220.109 30.496C218.253 31.4987 216.066 32 213.549 32H205.773ZM210.125 28.16H213.645C215.266 28.16 216.663 27.8293 217.837 27.168C219.031 26.4853 219.959 25.5467 220.621 24.352C221.282 23.136 221.613 21.7067 221.613 20.064C221.613 18.4 221.282 16.9707 220.621 15.776C219.959 14.5813 219.031 13.6533 217.837 12.992C216.663 12.3307 215.266 12 213.645 12H210.125V28.16ZM241.204 32.384C239.455 32.384 237.823 32.0747 236.308 31.456C234.794 30.8373 233.471 29.9733 232.34 28.864C231.21 27.7547 230.324 26.4533 229.684 24.96C229.066 23.4453 228.756 21.8133 228.756 20.064C228.756 18.2933 229.066 16.6613 229.684 15.168C230.303 13.6747 231.178 12.3733 232.308 11.264C233.439 10.1547 234.762 9.30133 236.276 8.704C237.791 8.08533 239.434 7.776 241.204 7.776C242.975 7.776 244.618 8.08533 246.132 8.704C247.647 9.32266 248.97 10.1867 250.1 11.296C251.231 12.384 252.106 13.6747 252.724 15.168C253.364 16.6613 253.684 18.2933 253.684 20.064C253.684 21.8133 253.364 23.4453 252.724 24.96C252.084 26.4533 251.199 27.7547 250.068 28.864C248.938 29.9733 247.615 30.8373 246.1 31.456C244.607 32.0747 242.975 32.384 241.204 32.384ZM241.204 28.416C242.378 28.416 243.455 28.2133 244.436 27.808C245.418 27.3813 246.271 26.7947 246.996 26.048C247.743 25.3013 248.308 24.416 248.692 23.392C249.098 22.368 249.3 21.2587 249.3 20.064C249.3 18.8693 249.098 17.7707 248.692 16.768C248.308 15.744 247.743 14.8587 246.996 14.112C246.271 13.344 245.418 12.7573 244.436 12.352C243.455 11.9467 242.378 11.744 241.204 11.744C240.052 11.744 238.986 11.9467 238.004 12.352C237.023 12.7573 236.159 13.344 235.412 14.112C234.687 14.8587 234.122 15.744 233.716 16.768C233.311 17.7707 233.108 18.8693 233.108 20.064C233.108 21.2587 233.311 22.368 233.716 23.392C234.122 24.416 234.687 25.3013 235.412 26.048C236.159 26.7947 237.023 27.3813 238.004 27.808C238.986 28.2133 240.052 28.416 241.204 28.416Z" fill="#FAFAFA"/>
<path d="M101.204 70.384C99.4549 70.384 97.8229 70.0747 96.3083 69.456C94.7936 68.8373 93.4709 67.9733 92.3403 66.864C91.2096 65.7547 90.3243 64.4533 89.6843 62.96C89.0656 61.4453 88.7563 59.8133 88.7563 58.064C88.7563 56.2933 89.0656 54.6613 89.6843 53.168C90.3029 51.6747 91.1776 50.3733 92.3083 49.264C93.4389 48.1547 94.7616 47.3013 96.2763 46.704C97.7909 46.0853 99.4336 45.776 101.204 45.776C102.975 45.776 104.618 46.0853 106.132 46.704C107.647 47.3227 108.97 48.1867 110.1 49.296C111.231 50.384 112.106 51.6747 112.724 53.168C113.364 54.6613 113.684 56.2933 113.684 58.064C113.684 59.8133 113.364 61.4453 112.724 62.96C112.084 64.4533 111.199 65.7547 110.068 66.864C108.938 67.9733 107.615 68.8373 106.1 69.456C104.607 70.0747 102.975 70.384 101.204 70.384ZM101.204 66.416C102.378 66.416 103.455 66.2133 104.436 65.808C105.418 65.3813 106.271 64.7947 106.996 64.048C107.743 63.3013 108.308 62.416 108.692 61.392C109.098 60.368 109.3 59.2587 109.3 58.064C109.3 56.8693 109.098 55.7707 108.692 54.768C108.308 53.744 107.743 52.8587 106.996 52.112C106.271 51.344 105.418 50.7573 104.436 50.352C103.455 49.9467 102.378 49.744 101.204 49.744C100.052 49.744 98.9856 49.9467 98.0043 50.352C97.0229 50.7573 96.1589 51.344 95.4123 52.112C94.6869 52.8587 94.1216 53.744 93.7163 54.768C93.3109 55.7707 93.1083 56.8693 93.1083 58.064C93.1083 59.2587 93.3109 60.368 93.7163 61.392C94.1216 62.416 94.6869 63.3013 95.4123 64.048C96.1589 64.7947 97.0229 65.3813 98.0043 65.808C98.9856 66.2133 100.052 66.416 101.204 66.416ZM117.554 70V46.16H126.418C128.039 46.16 129.469 46.4587 130.706 47.056C131.965 47.632 132.946 48.4853 133.65 49.616C134.354 50.7253 134.706 52.08 134.706 53.68C134.706 55.3227 134.311 56.72 133.522 57.872C132.754 59.024 131.709 59.8773 130.386 60.432L135.858 70H130.93L125.074 59.536L127.89 61.2H121.906V70H117.554ZM121.906 57.36H126.482C127.271 57.36 127.954 57.2107 128.53 56.912C129.106 56.592 129.554 56.1547 129.874 55.6C130.194 55.0453 130.354 54.4053 130.354 53.68C130.354 52.9333 130.194 52.2933 129.874 51.76C129.554 51.2053 129.106 50.7787 128.53 50.48C127.954 50.16 127.271 50 126.482 50H121.906V57.36ZM150.006 70.384C148.3 70.384 146.721 70.0747 145.27 69.456C143.82 68.8373 142.55 67.9733 141.462 66.864C140.374 65.7547 139.521 64.4533 138.902 62.96C138.305 61.4667 138.006 59.8347 138.006 58.064C138.006 56.2933 138.294 54.6613 138.87 53.168C139.468 51.6533 140.3 50.352 141.366 49.264C142.454 48.1547 143.724 47.3013 145.174 46.704C146.625 46.0853 148.204 45.776 149.91 45.776C151.617 45.776 153.142 46.064 154.486 46.64C155.852 47.216 157.004 47.984 157.942 48.944C158.881 49.8827 159.553 50.9173 159.958 52.048L156.086 53.904C155.638 52.6667 154.881 51.664 153.814 50.896C152.748 50.128 151.446 49.744 149.91 49.744C148.417 49.744 147.094 50.096 145.942 50.8C144.812 51.504 143.926 52.4747 143.286 53.712C142.668 54.9493 142.358 56.4 142.358 58.064C142.358 59.728 142.678 61.1893 143.318 62.448C143.98 63.6853 144.886 64.656 146.038 65.36C147.19 66.064 148.513 66.416 150.006 66.416C151.222 66.416 152.342 66.1813 153.366 65.712C154.39 65.2213 155.212 64.5387 155.83 63.664C156.449 62.768 156.758 61.712 156.758 60.496V58.672L158.742 60.4H149.91V56.72H161.11V59.12C161.11 60.9547 160.801 62.576 160.182 63.984C159.564 65.392 158.721 66.576 157.654 67.536C156.609 68.4747 155.425 69.1893 154.102 69.68C152.78 70.1493 151.414 70.384 150.006 70.384ZM162.352 70L170.576 46.16H176.208L184.432 70H179.696L178 64.88H168.784L167.056 70H162.352ZM170.032 61.04H176.752L172.784 49.168H174L170.032 61.04ZM171.344 43.056L173.424 37.52H178.864L175.472 43.056H171.344ZM187.085 70V46.16H190.477L203.597 63.824L201.837 64.176V46.16H206.189V70H202.765L189.837 52.208L191.437 51.856V70H187.085ZM210.804 70V46.16H215.156V70H210.804ZM230.942 70.384C229.235 70.384 227.656 70.0747 226.206 69.456C224.776 68.8373 223.518 67.9733 222.43 66.864C221.363 65.7547 220.531 64.4533 219.934 62.96C219.336 61.4667 219.038 59.8347 219.038 58.064C219.038 56.2933 219.326 54.6613 219.902 53.168C220.499 51.6533 221.331 50.352 222.398 49.264C223.486 48.1547 224.755 47.3013 226.206 46.704C227.656 46.0853 229.235 45.776 230.942 45.776C232.648 45.776 234.174 46.064 235.517 46.64C236.883 47.216 238.035 47.984 238.974 48.944C239.912 49.8827 240.584 50.9173 240.99 52.048L237.086 53.872C236.638 52.6773 235.88 51.696 234.814 50.928C233.747 50.1387 232.456 49.744 230.942 49.744C229.448 49.744 228.126 50.096 226.974 50.8C225.843 51.504 224.958 52.4747 224.318 53.712C223.699 54.9493 223.39 56.4 223.39 58.064C223.39 59.728 223.699 61.1893 224.318 62.448C224.958 63.6853 225.843 64.656 226.974 65.36C228.126 66.064 229.448 66.416 230.942 66.416C232.456 66.416 233.747 66.032 234.814 65.264C235.88 64.4747 236.638 63.4827 237.086 62.288L240.99 64.112C240.584 65.2427 239.912 66.288 238.974 67.248C238.035 68.1867 236.883 68.944 235.517 69.52C234.174 70.096 232.648 70.384 230.942 70.384ZM256.267 70.384C254.517 70.384 252.885 70.0747 251.371 69.456C249.856 68.8373 248.533 67.9733 247.403 66.864C246.272 65.7547 245.387 64.4533 244.747 62.96C244.128 61.4453 243.819 59.8133 243.819 58.064C243.819 56.2933 244.128 54.6613 244.747 53.168C245.365 51.6747 246.24 50.3733 247.371 49.264C248.501 48.1547 249.824 47.3013 251.339 46.704C252.853 46.0853 254.496 45.776 256.267 45.776C258.037 45.776 259.68 46.0853 261.195 46.704C262.709 47.3227 264.032 48.1867 265.163 49.296C266.293 50.384 267.168 51.6747 267.787 53.168C268.427 54.6613 268.747 56.2933 268.747 58.064C268.747 59.8133 268.427 61.4453 267.787 62.96C267.147 64.4533 266.261 65.7547 265.131 66.864C264 67.9733 262.677 68.8373 261.163 69.456C259.669 70.0747 258.037 70.384 256.267 70.384ZM256.267 66.416C257.44 66.416 258.517 66.2133 259.499 65.808C260.48 65.3813 261.333 64.7947 262.059 64.048C262.805 63.3013 263.371 62.416 263.755 61.392C264.16 60.368 264.363 59.2587 264.363 58.064C264.363 56.8693 264.16 55.7707 263.755 54.768C263.371 53.744 262.805 52.8587 262.059 52.112C261.333 51.344 260.48 50.7573 259.499 50.352C258.517 49.9467 257.44 49.744 256.267 49.744C255.115 49.744 254.048 49.9467 253.067 50.352C252.085 50.7573 251.221 51.344 250.475 52.112C249.749 52.8587 249.184 53.744 248.779 54.768C248.373 55.7707 248.171 56.8693 248.171 58.064C248.171 59.2587 248.373 60.368 248.779 61.392C249.184 62.416 249.749 63.3013 250.475 64.048C251.221 64.7947 252.085 65.3813 253.067 65.808C254.048 66.2133 255.115 66.416 256.267 66.416Z" fill="#60BE74"/>
</svg>
