<svg width="153" height="43" viewBox="0 0 153 43" fill="none" xmlns="http://www.w3.org/2000/svg">
<path d="M0.0117022 0C1.01237 0.104069 1.8857 0.367516 2.82599 0.719934C2.97178 0.774519 3.11756 0.829105 3.26777 0.885345C6.8606 2.26375 9.7534 4.46823 11.3838 8.01966C11.9794 9.47069 12.2155 11.0184 12.4033 12.5661C12.6115 12.5665 12.6115 12.5665 12.8238 12.5669C16.1988 12.5734 19.5737 12.5836 22.9486 12.5982C24.5806 12.6052 26.2127 12.6108 27.8448 12.6134C29.2671 12.6157 30.6894 12.6204 32.1118 12.628C32.8651 12.632 33.6183 12.6347 34.3716 12.6345C35.0804 12.6344 35.7892 12.6375 36.498 12.6431C36.7583 12.6446 37.0186 12.6449 37.279 12.6439C37.6341 12.6428 37.9893 12.6463 38.3444 12.6501C38.6427 12.651 38.6427 12.651 38.947 12.652C39.5671 12.7601 39.7736 12.9461 40.1535 13.4388C40.4873 15.0745 39.9522 16.9758 39.6626 18.5983C39.589 19.0187 39.5159 19.4392 39.4429 19.8598C39.3952 20.1345 39.3472 20.4093 39.2991 20.684C39.1692 21.4301 39.051 22.1759 38.9508 22.9268C38.9197 23.1552 38.9197 23.1552 38.888 23.3883C38.8533 23.6519 38.8212 23.9159 38.7925 24.1802C38.6677 25.1003 38.3622 25.5493 37.71 26.1794C37.218 26.3695 36.8167 26.3295 36.3138 26.1794C35.6247 25.6051 35.6247 25.6051 35.4412 25.1322C35.3605 23.9537 35.5599 22.8341 35.7575 21.6744C35.8216 21.2876 35.8857 20.9008 35.9498 20.514C35.9818 20.3226 36.0138 20.1312 36.0467 19.934C36.133 19.4106 36.2157 18.8868 36.2961 18.3624C36.3195 18.2098 36.343 18.0572 36.3671 17.9C36.4107 17.6151 36.4539 17.3301 36.4967 17.045C36.6436 16.0953 36.6436 16.0953 36.8374 15.7076C28.7165 15.7076 20.5957 15.7076 12.2288 15.7076C12.6319 17.4355 13.0351 19.1633 13.4505 20.9435C13.9291 23.177 13.9291 23.177 14.1486 24.2596C14.5871 23.8314 14.9863 23.3949 15.3703 22.9179C17.4768 20.5169 20.3479 19.3428 23.3986 18.6746C23.566 18.6373 23.7334 18.6 23.9059 18.5615C25.5773 18.2375 27.2865 18.2148 28.9836 18.1511C28.587 21.8878 26.6924 25.8854 23.9222 28.4374C21.6714 30.2497 19.289 31.0908 16.4175 30.8917C16.6805 30.1213 17.0973 29.5033 17.5737 28.8519C17.6517 28.7443 17.7296 28.6367 17.8099 28.5258C18.8397 27.1137 19.9333 25.7778 21.1161 24.4907C21.4864 24.0765 21.8337 23.6492 22.1769 23.2124C22.0305 23.3491 22.0305 23.3491 21.8811 23.4885C21.0283 24.2713 20.1598 25.0053 19.2427 25.7104C17.9385 26.7153 16.7094 27.8073 15.5448 28.9719C15.5561 29.2488 15.5801 29.5253 15.6103 29.8009C15.626 29.9512 15.6418 30.1015 15.658 30.2563C15.7179 30.7062 15.8029 31.1453 15.8939 31.5898C16.001 31.5901 16.1081 31.5903 16.2185 31.5906C18.826 31.5971 21.4334 31.6074 24.0408 31.6219C25.3017 31.6289 26.5626 31.6345 27.8235 31.6371C28.9226 31.6394 30.0217 31.6441 31.1208 31.6517C31.7027 31.6557 32.2846 31.658 32.8665 31.6582C33.5163 31.6586 34.166 31.6633 34.8158 31.6691C35.0085 31.6682 35.2012 31.6673 35.3997 31.6664C36.6981 31.6842 36.6981 31.6842 37.3892 32.0819C37.8389 32.6152 37.8846 32.9926 37.8846 33.6842C37.6729 34.1855 37.5123 34.4616 37.0504 34.7522C36.5868 34.936 36.2298 34.9513 35.7312 34.9537C35.5424 34.9555 35.3535 34.9572 35.1589 34.959C34.9525 34.9591 34.7461 34.9592 34.5335 34.9594C34.2065 34.9615 34.2065 34.9615 33.8728 34.9638C33.2753 34.9672 32.6778 34.9691 32.0803 34.97C31.7068 34.9706 31.3332 34.9717 30.9597 34.973C29.656 34.9772 28.3523 34.9795 27.0486 34.9801C25.8343 34.9808 24.6201 34.986 23.4058 34.9933C22.3625 34.9994 21.3192 35.0021 20.2758 35.0022C19.653 35.0023 19.0303 35.0038 18.4075 35.0088C17.7127 35.0142 17.018 35.0127 16.3231 35.0105C16.0146 35.0144 16.0146 35.0144 15.6999 35.0183C14.1451 35.0044 14.1451 35.0044 13.5023 34.4942C13.0531 33.9777 12.9133 33.6471 12.7748 32.9806C12.7066 32.6694 12.7066 32.6694 12.637 32.3519C12.5923 32.1292 12.5475 31.9065 12.5015 31.6771C12.4514 31.4434 12.4009 31.2099 12.3499 30.9764C12.271 30.6144 12.1925 30.2524 12.1155 29.89C11.8482 28.6322 11.5431 27.3846 11.2361 26.1358C10.788 24.2934 10.3594 22.448 9.95988 20.5945C9.83141 20.6554 9.70295 20.7164 9.57059 20.7792C9.40029 20.8586 9.22998 20.9381 9.05451 21.0199C8.88645 21.0989 8.71839 21.1778 8.54523 21.2592C7.03595 21.8804 5.52573 21.7878 4.02861 21.189C3.40288 20.8972 2.79619 20.5816 2.19332 20.2454C2.08865 20.1875 1.98398 20.1295 1.87613 20.0699C1.29651 19.7336 0.891915 19.4198 0.53529 18.8492C2.86658 17.4964 4.92342 16.6165 7.66441 17.262C8.20426 17.4265 8.73392 17.6026 9.26176 17.802C9.16163 17.1241 9.02805 16.5056 8.73817 15.8822C8.37198 15.6453 8.05477 15.5776 7.63032 15.4813C5.21917 14.8421 3.35159 12.718 2.06788 10.6872C0.553915 7.93816 -0.0245393 5.03389 0.00079416 1.91982C0.0019753 1.64209 0.0019753 1.64209 0.0031803 1.35874C0.0052205 0.905815 0.00808028 0.452913 0.0117022 0Z" fill="#383A39"/>
<path d="M0.0116923 0C1.01236 0.104069 1.88569 0.367516 2.82598 0.719934C2.97177 0.774519 3.11755 0.829105 3.26776 0.885345C6.86103 2.26392 9.75355 4.46848 11.3838 8.02043C12.0024 9.52439 12.2482 11.1312 12.4033 12.7406C12.3056 12.7423 12.2079 12.7439 12.1072 12.7456C11.664 12.755 11.2211 12.7696 10.778 12.7843C10.6242 12.7868 10.4704 12.7892 10.312 12.7918C9.45094 12.8089 9.45094 12.8089 8.71635 13.2042C8.51498 13.7436 8.55003 14.1342 8.61817 14.7041C8.6391 14.8922 8.66002 15.0803 8.68158 15.274C8.70025 15.4171 8.71892 15.5602 8.73816 15.7076C6.43365 15.6052 4.68625 13.8328 3.19685 12.2389C0.780105 9.36827 -0.0289092 5.56983 0.00078423 1.91982C0.00196537 1.64209 0.00196537 1.64209 0.00317037 1.35874C0.00521057 0.905815 0.00807035 0.452913 0.0116923 0Z" fill="#60BE74"/>
<path d="M28.9834 18.1507C28.5868 21.8875 26.6922 25.8851 23.922 28.437C21.6712 30.2494 19.2888 31.0904 16.4173 30.8913C16.6803 30.1209 17.0971 29.5029 17.5735 28.8515C17.6515 28.7439 17.7294 28.6363 17.8097 28.5255C18.8395 27.1133 19.9331 25.7775 21.1159 24.4903C21.4862 24.0762 21.8335 23.6488 22.1767 23.2121C22.0791 23.3032 21.9814 23.3943 21.8808 23.4882C21.0281 24.271 20.1595 25.0048 19.2425 25.71C18.373 26.3815 17.5415 27.0815 16.7336 27.8262C16.5921 27.956 16.5921 27.956 16.4477 28.0885C15.9767 28.5289 15.574 28.9746 15.1956 29.4951C15.0097 28.8087 14.8357 28.1204 14.6715 27.4285C14.6142 27.1942 14.5539 26.9606 14.4905 26.7279C13.9685 24.8014 13.9685 24.8014 14.4074 23.9046C14.7615 23.4573 15.1248 23.0741 15.5446 22.6885C15.6711 22.5611 15.7976 22.4338 15.9279 22.3026C17.8743 20.3712 20.7276 19.1376 23.3984 18.6743C23.5595 18.6441 23.7206 18.614 23.8866 18.5829C25.5786 18.2805 27.2643 18.1176 28.9834 18.1507Z" fill="#60BE74"/>
<path d="M20.3885 36.5203C21.5022 37.12 22.108 37.7253 22.5265 38.9201C22.6454 39.8715 22.4916 40.714 22.0029 41.538C21.2496 42.3681 20.6237 42.8612 19.5016 42.9759C18.4178 43.0083 17.8165 42.8881 16.9416 42.2362C16.1424 41.4412 15.8669 40.7839 15.8398 39.6619C15.8495 38.6604 15.9823 38.141 16.5925 37.3493C17.7691 36.261 18.8644 36.0123 20.3885 36.5203Z" fill="#383A39"/>
<path d="M33.4654 36.4766C34.2719 36.9635 35.0738 37.6543 35.3838 38.5736C35.5668 39.7071 35.4711 40.5237 34.9162 41.5379C34.2488 42.3315 33.5909 42.8614 32.5396 42.9901C31.4942 43.0325 30.8335 42.9636 30.0293 42.236C29.1905 41.3807 28.7976 40.6503 28.7422 39.4545C28.7634 38.6139 28.9365 38.166 29.5058 37.5237C30.7698 36.3273 31.7267 36.0051 33.4654 36.4766Z" fill="#383A39"/>
<path d="M9.26163 17.8021C9.64339 18.3747 9.7057 18.7325 9.80703 19.4056C9.8509 19.69 9.8509 19.69 9.89566 19.9803C9.92738 20.1979 9.92738 20.1979 9.95974 20.42C8.63837 21.4284 7.07812 21.8624 5.42198 21.6417C4.26162 21.3626 3.22877 20.823 2.19319 20.2455C2.08851 20.1875 1.98384 20.1296 1.876 20.0699C1.29638 19.7337 0.891781 19.4198 0.535156 18.8492C3.36288 17.2084 6.09993 16.3318 9.26163 17.8021Z" fill="#60BE74"/>
<path d="M13.7997 5.58496C15.5127 6.20706 16.7432 7.50427 17.6563 9.051C18.1633 10.1546 18.0334 11.3795 17.9884 12.5661C17.5852 12.5661 17.182 12.5661 16.7667 12.5661C15.9891 10.7519 15.9891 10.7519 15.1959 8.90102C15.5323 9.84614 15.5323 9.84614 15.8694 10.791C15.9115 10.9097 15.9536 11.0285 15.997 11.1508C16.0399 11.2715 16.0829 11.3921 16.1271 11.5164C16.2416 11.8635 16.3336 12.2106 16.4176 12.5661C15.8495 12.6457 15.3978 12.7044 14.9061 12.3677C13.5601 10.946 13.3721 9.10765 13.392 7.23345C13.4503 6.6353 13.5857 6.14462 13.7997 5.58496Z" fill="#60BE74"/>
<path d="M3.67773 5.06152C4.35477 5.6851 4.86806 6.4001 5.40121 7.14497C5.49833 7.27993 5.59545 7.41489 5.69552 7.55394C6.86841 9.19621 7.98015 10.8798 9.08815 12.5663C8.86248 13.0697 8.624 13.4166 8.2155 13.788C8.15591 13.6661 8.09632 13.5441 8.03492 13.4185C6.75527 10.8084 5.43857 8.25356 3.89181 5.79032C3.67773 5.41058 3.67773 5.41058 3.67773 5.06152Z" fill="#F5F8F1"/>
<path d="M19.0257 38.7021C19.5602 38.7458 19.5602 38.7458 20.0838 39.0948C20.1542 39.6468 20.1788 39.9919 19.8765 40.4693C19.4459 40.7366 19.1858 40.7403 18.6875 40.6656C18.3712 40.4693 18.3712 40.4693 18.164 40.142C18.1094 39.6075 18.1094 39.6075 18.164 39.0948C18.513 38.7458 18.513 38.7458 19.0257 38.7021Z" fill="#FAFAFA"/>
<path d="M32.1134 38.6904C32.6479 38.745 32.6479 38.745 32.9752 38.9522C33.2452 39.3873 33.2595 39.6385 33.1715 40.1412C32.8879 40.4684 32.8879 40.4684 32.4734 40.6648C31.9171 40.6321 31.9171 40.6321 31.4262 40.4903C31.1852 40.0081 31.2184 39.6268 31.2517 39.094C31.6008 38.745 31.6008 38.745 32.1134 38.6904Z" fill="#FAFAFA"/>
<path d="M4.37695 19.0233C5.58787 18.982 6.76521 19.035 7.96571 19.1869C8.08619 19.202 8.20667 19.2172 8.33079 19.2328C8.83926 19.3008 9.29934 19.3842 9.78736 19.5469C9.90735 19.9068 9.90735 19.9068 9.96189 20.245C9.85944 20.2241 9.75699 20.2032 9.65144 20.1817C8.49928 19.9487 7.3445 19.7335 6.1877 19.525C6.01244 19.4933 5.83718 19.4616 5.65661 19.4289C5.23008 19.3517 4.80353 19.2747 4.37695 19.1978C4.37695 19.1402 4.37695 19.0826 4.37695 19.0233Z" fill="#E7F0CF"/>
<path d="M15.0215 8.55176C15.5615 9.18816 15.8615 9.89822 16.1886 10.657C16.2446 10.7827 16.3005 10.9083 16.3581 11.0378C16.5909 11.5725 16.7668 11.9765 16.7668 12.5659C16.6516 12.5659 16.5364 12.5659 16.4177 12.5659C15.0215 9.2547 15.0215 9.2547 15.0215 8.55176Z" fill="#ECF1D7"/>
<path d="M49.5558 18V4.59H51.8958L56.9178 11.412H55.8018L60.7158 4.59H63.0558V18H60.5898V7.38L61.5438 7.614L56.4498 14.4H56.1618L51.1938 7.614L52.0038 7.38V18H49.5558ZM65.6222 18V4.59H74.5322V6.75H68.0702V10.188H74.1722V12.348H68.0702V15.84H74.5322V18H65.6222ZM76.3273 18V4.59H81.3133C82.2253 4.59 83.0293 4.758 83.7253 5.094C84.4333 5.418 84.9853 5.898 85.3813 6.534C85.7773 7.158 85.9753 7.92 85.9753 8.82C85.9753 9.744 85.7533 10.53 85.3093 11.178C84.8773 11.826 84.2893 12.306 83.5453 12.618L86.6233 18H83.8513L80.5573 12.114L82.1413 13.05H78.7753V18H76.3273ZM78.7753 10.89H81.3493C81.7933 10.89 82.1773 10.806 82.5013 10.638C82.8253 10.458 83.0773 10.212 83.2573 9.9C83.4373 9.588 83.5273 9.228 83.5273 8.82C83.5273 8.4 83.4373 8.04 83.2573 7.74C83.0773 7.428 82.8253 7.188 82.5013 7.02C82.1773 6.84 81.7933 6.75 81.3493 6.75H78.7753V10.89ZM94.5276 18.216C93.5676 18.216 92.6796 18.042 91.8636 17.694C91.0596 17.346 90.3516 16.86 89.7396 16.236C89.1396 15.612 88.6716 14.88 88.3356 14.04C87.9996 13.2 87.8316 12.282 87.8316 11.286C87.8316 10.29 87.9936 9.372 88.3176 8.532C88.6536 7.68 89.1216 6.948 89.7216 6.336C90.3336 5.712 91.0476 5.232 91.8636 4.896C92.6796 4.548 93.5676 4.374 94.5276 4.374C95.4876 4.374 96.3456 4.536 97.1016 4.86C97.8696 5.184 98.5176 5.616 99.0456 6.156C99.5736 6.684 99.9516 7.266 100.18 7.902L97.9836 8.928C97.7316 8.256 97.3056 7.704 96.7056 7.272C96.1056 6.828 95.3796 6.606 94.5276 6.606C93.6876 6.606 92.9436 6.804 92.2956 7.2C91.6596 7.596 91.1616 8.142 90.8016 8.838C90.4536 9.534 90.2796 10.35 90.2796 11.286C90.2796 12.222 90.4536 13.044 90.8016 13.752C91.1616 14.448 91.6596 14.994 92.2956 15.39C92.9436 15.786 93.6876 15.984 94.5276 15.984C95.3796 15.984 96.1056 15.768 96.7056 15.336C97.3056 14.892 97.7316 14.334 97.9836 13.662L100.18 14.688C99.9516 15.324 99.5736 15.912 99.0456 16.452C98.5176 16.98 97.8696 17.406 97.1016 17.73C96.3456 18.054 95.4876 18.216 94.5276 18.216ZM101.069 18L105.695 4.59H108.863L113.489 18H110.825L109.871 15.12H104.687L103.715 18H101.069ZM105.389 12.96H109.169L106.937 6.282H107.621L105.389 12.96ZM114.982 18V4.59H119.356C120.772 4.59 122.002 4.878 123.046 5.454C124.102 6.018 124.918 6.804 125.494 7.812C126.07 8.808 126.358 9.966 126.358 11.286C126.358 12.594 126.07 13.758 125.494 14.778C124.918 15.786 124.102 16.578 123.046 17.154C122.002 17.718 120.772 18 119.356 18H114.982ZM117.43 15.84H119.41C120.322 15.84 121.108 15.654 121.768 15.282C122.44 14.898 122.962 14.37 123.334 13.698C123.706 13.014 123.892 12.21 123.892 11.286C123.892 10.35 123.706 9.546 123.334 8.874C122.962 8.202 122.44 7.68 121.768 7.308C121.108 6.936 120.322 6.75 119.41 6.75H117.43V15.84ZM134.912 18.216C133.928 18.216 133.01 18.042 132.158 17.694C131.306 17.346 130.562 16.86 129.926 16.236C129.29 15.612 128.792 14.88 128.432 14.04C128.084 13.188 127.91 12.27 127.91 11.286C127.91 10.29 128.084 9.372 128.432 8.532C128.78 7.692 129.272 6.96 129.908 6.336C130.544 5.712 131.288 5.232 132.14 4.896C132.992 4.548 133.916 4.374 134.912 4.374C135.908 4.374 136.832 4.548 137.684 4.896C138.536 5.244 139.28 5.73 139.916 6.354C140.552 6.966 141.044 7.692 141.392 8.532C141.752 9.372 141.932 10.29 141.932 11.286C141.932 12.27 141.752 13.188 141.392 14.04C141.032 14.88 140.534 15.612 139.898 16.236C139.262 16.86 138.518 17.346 137.666 17.694C136.826 18.042 135.908 18.216 134.912 18.216ZM134.912 15.984C135.572 15.984 136.178 15.87 136.73 15.642C137.282 15.402 137.762 15.072 138.17 14.652C138.59 14.232 138.908 13.734 139.124 13.158C139.352 12.582 139.466 11.958 139.466 11.286C139.466 10.614 139.352 9.996 139.124 9.432C138.908 8.856 138.59 8.358 138.17 7.938C137.762 7.506 137.282 7.176 136.73 6.948C136.178 6.72 135.572 6.606 134.912 6.606C134.264 6.606 133.664 6.72 133.112 6.948C132.56 7.176 132.074 7.506 131.654 7.938C131.246 8.358 130.928 8.856 130.7 9.432C130.472 9.996 130.358 10.614 130.358 11.286C130.358 11.958 130.472 12.582 130.7 13.158C130.928 13.734 131.246 14.232 131.654 14.652C132.074 15.072 132.56 15.402 133.112 15.642C133.664 15.87 134.264 15.984 134.912 15.984Z" fill="#383A39"/>
<path d="M56.1618 40.216C55.1778 40.216 54.2598 40.042 53.4078 39.694C52.5558 39.346 51.8118 38.86 51.1758 38.236C50.5398 37.612 50.0418 36.88 49.6818 36.04C49.3338 35.188 49.1598 34.27 49.1598 33.286C49.1598 32.29 49.3338 31.372 49.6818 30.532C50.0298 29.692 50.5218 28.96 51.1578 28.336C51.7938 27.712 52.5378 27.232 53.3898 26.896C54.2418 26.548 55.1658 26.374 56.1618 26.374C57.1578 26.374 58.0818 26.548 58.9338 26.896C59.7858 27.244 60.5298 27.73 61.1658 28.354C61.8018 28.966 62.2938 29.692 62.6418 30.532C63.0018 31.372 63.1818 32.29 63.1818 33.286C63.1818 34.27 63.0018 35.188 62.6418 36.04C62.2818 36.88 61.7838 37.612 61.1478 38.236C60.5118 38.86 59.7678 39.346 58.9158 39.694C58.0758 40.042 57.1578 40.216 56.1618 40.216ZM56.1618 37.984C56.8218 37.984 57.4278 37.87 57.9798 37.642C58.5318 37.402 59.0118 37.072 59.4198 36.652C59.8398 36.232 60.1578 35.734 60.3738 35.158C60.6018 34.582 60.7158 33.958 60.7158 33.286C60.7158 32.614 60.6018 31.996 60.3738 31.432C60.1578 30.856 59.8398 30.358 59.4198 29.938C59.0118 29.506 58.5318 29.176 57.9798 28.948C57.4278 28.72 56.8218 28.606 56.1618 28.606C55.5138 28.606 54.9138 28.72 54.3618 28.948C53.8098 29.176 53.3238 29.506 52.9038 29.938C52.4958 30.358 52.1778 30.856 51.9498 31.432C51.7218 31.996 51.6078 32.614 51.6078 33.286C51.6078 33.958 51.7218 34.582 51.9498 35.158C52.1778 35.734 52.4958 36.232 52.9038 36.652C53.3238 37.072 53.8098 37.402 54.3618 37.642C54.9138 37.87 55.5138 37.984 56.1618 37.984ZM65.3585 40V26.59H70.3445C71.2565 26.59 72.0605 26.758 72.7565 27.094C73.4645 27.418 74.0165 27.898 74.4125 28.534C74.8085 29.158 75.0065 29.92 75.0065 30.82C75.0065 31.744 74.7845 32.53 74.3405 33.178C73.9085 33.826 73.3205 34.306 72.5765 34.618L75.6545 40H72.8825L69.5885 34.114L71.1725 35.05H67.8065V40H65.3585ZM67.8065 32.89H70.3805C70.8245 32.89 71.2085 32.806 71.5325 32.638C71.8565 32.458 72.1085 32.212 72.2885 31.9C72.4685 31.588 72.5585 31.228 72.5585 30.82C72.5585 30.4 72.4685 30.04 72.2885 29.74C72.1085 29.428 71.8565 29.188 71.5325 29.02C71.2085 28.84 70.8245 28.75 70.3805 28.75H67.8065V32.89ZM83.6129 40.216C82.6529 40.216 81.7649 40.042 80.9489 39.694C80.1329 39.346 79.4189 38.86 78.8069 38.236C78.1949 37.612 77.7149 36.88 77.3669 36.04C77.0309 35.2 76.8629 34.282 76.8629 33.286C76.8629 32.29 77.0249 31.372 77.3489 30.532C77.6849 29.68 78.1529 28.948 78.7529 28.336C79.3649 27.712 80.0789 27.232 80.8949 26.896C81.7109 26.548 82.5989 26.374 83.5589 26.374C84.5189 26.374 85.3769 26.536 86.1329 26.86C86.9009 27.184 87.5489 27.616 88.0769 28.156C88.6049 28.684 88.9829 29.266 89.2109 29.902L87.0329 30.946C86.7809 30.25 86.3549 29.686 85.7549 29.254C85.1549 28.822 84.4229 28.606 83.5589 28.606C82.7189 28.606 81.9749 28.804 81.3269 29.2C80.6909 29.596 80.1929 30.142 79.8329 30.838C79.4849 31.534 79.3109 32.35 79.3109 33.286C79.3109 34.222 79.4909 35.044 79.8509 35.752C80.2229 36.448 80.7329 36.994 81.3809 37.39C82.0289 37.786 82.7729 37.984 83.6129 37.984C84.2969 37.984 84.9269 37.852 85.5029 37.588C86.0789 37.312 86.5409 36.928 86.8889 36.436C87.2369 35.932 87.4109 35.338 87.4109 34.654V33.628L88.5269 34.6H83.5589V32.53H89.8589V33.88C89.8589 34.912 89.6849 35.824 89.3369 36.616C88.9889 37.408 88.5149 38.074 87.9149 38.614C87.3269 39.142 86.6609 39.544 85.9169 39.82C85.1729 40.084 84.4049 40.216 83.6129 40.216ZM90.5574 40L95.1834 26.59H98.3514L102.977 40H100.313L99.3594 37.12H94.1754L93.2034 40H90.5574ZM94.8774 34.96H98.6574L96.4254 28.282H97.1094L94.8774 34.96ZM95.6154 24.844L96.7854 21.73H99.8454L97.9374 24.844H95.6154ZM104.47 40V26.59H106.378L113.758 36.526L112.768 36.724V26.59H115.216V40H113.29L106.018 29.992L106.918 29.794V40H104.47ZM117.812 40V26.59H120.26V40H117.812ZM129.139 40.216C128.179 40.216 127.291 40.042 126.475 39.694C125.671 39.346 124.963 38.86 124.351 38.236C123.751 37.612 123.283 36.88 122.947 36.04C122.611 35.2 122.443 34.282 122.443 33.286C122.443 32.29 122.605 31.372 122.929 30.532C123.265 29.68 123.733 28.948 124.333 28.336C124.945 27.712 125.659 27.232 126.475 26.896C127.291 26.548 128.179 26.374 129.139 26.374C130.099 26.374 130.957 26.536 131.713 26.86C132.481 27.184 133.129 27.616 133.657 28.156C134.185 28.684 134.563 29.266 134.791 29.902L132.595 30.928C132.343 30.256 131.917 29.704 131.317 29.272C130.717 28.828 129.991 28.606 129.139 28.606C128.299 28.606 127.555 28.804 126.907 29.2C126.271 29.596 125.773 30.142 125.413 30.838C125.065 31.534 124.891 32.35 124.891 33.286C124.891 34.222 125.065 35.044 125.413 35.752C125.773 36.448 126.271 36.994 126.907 37.39C127.555 37.786 128.299 37.984 129.139 37.984C129.991 37.984 130.717 37.768 131.317 37.336C131.917 36.892 132.343 36.334 132.595 35.662L134.791 36.688C134.563 37.324 134.185 37.912 133.657 38.452C133.129 38.98 132.481 39.406 131.713 39.73C130.957 40.054 130.099 40.216 129.139 40.216ZM143.384 40.216C142.4 40.216 141.482 40.042 140.63 39.694C139.778 39.346 139.034 38.86 138.398 38.236C137.762 37.612 137.264 36.88 136.904 36.04C136.556 35.188 136.382 34.27 136.382 33.286C136.382 32.29 136.556 31.372 136.904 30.532C137.252 29.692 137.744 28.96 138.38 28.336C139.016 27.712 139.76 27.232 140.612 26.896C141.464 26.548 142.388 26.374 143.384 26.374C144.38 26.374 145.304 26.548 146.156 26.896C147.008 27.244 147.752 27.73 148.388 28.354C149.024 28.966 149.516 29.692 149.864 30.532C150.224 31.372 150.404 32.29 150.404 33.286C150.404 34.27 150.224 35.188 149.864 36.04C149.504 36.88 149.006 37.612 148.37 38.236C147.734 38.86 146.99 39.346 146.138 39.694C145.298 40.042 144.38 40.216 143.384 40.216ZM143.384 37.984C144.044 37.984 144.65 37.87 145.202 37.642C145.754 37.402 146.234 37.072 146.642 36.652C147.062 36.232 147.38 35.734 147.596 35.158C147.824 34.582 147.938 33.958 147.938 33.286C147.938 32.614 147.824 31.996 147.596 31.432C147.38 30.856 147.062 30.358 146.642 29.938C146.234 29.506 145.754 29.176 145.202 28.948C144.65 28.72 144.044 28.606 143.384 28.606C142.736 28.606 142.136 28.72 141.584 28.948C141.032 29.176 140.546 29.506 140.126 29.938C139.718 30.358 139.4 30.856 139.172 31.432C138.944 31.996 138.83 32.614 138.83 33.286C138.83 33.958 138.944 34.582 139.172 35.158C139.4 35.734 139.718 36.232 140.126 36.652C140.546 37.072 141.032 37.402 141.584 37.642C142.136 37.87 142.736 37.984 143.384 37.984Z" fill="#60BE74"/>
</svg>
