<svg width="269" height="43" viewBox="0 0 269 43" fill="none" xmlns="http://www.w3.org/2000/svg">
<path d="M43.8218 10.1569H48.0746V28.2135H60.8331V30.8078H43.8218V10.1569ZM74.0806 10.1569C76.604 10.1569 79.0706 10.6134 81.1688 11.4686C83.2669 12.3238 84.9023 13.5393 85.8679 14.9615C86.8335 16.3837 87.0861 17.9486 86.5939 19.4582C86.1016 20.968 84.8866 22.3548 83.1021 23.4433C81.3178 24.5319 79.0445 25.2731 76.5695 25.5733C74.0948 25.8736 71.5295 25.7195 69.1981 25.1305C66.8667 24.5413 64.8743 23.5438 63.4723 22.2639C62.0704 20.984 61.3221 19.4793 61.3221 17.9399C61.3221 16.9179 61.6521 15.9057 62.2933 14.9615C62.9344 14.0171 63.8742 13.1592 65.0591 12.4366C66.2437 11.7138 67.6501 11.1404 69.1981 10.7493C70.7459 10.3582 72.4052 10.1569 74.0806 10.1569ZM74.0806 23.1286C75.7628 23.1286 77.4074 22.8243 78.8061 22.2542C80.2049 21.6839 81.2951 20.8736 81.9387 19.9255C82.5826 18.9774 82.751 17.9342 82.4227 16.9276C82.0946 15.9211 81.2844 14.9966 80.0949 14.271C78.9054 13.5454 77.3899 13.0512 75.74 12.851C74.0899 12.6507 72.3799 12.7535 70.8257 13.1462C69.2715 13.5389 67.9429 14.2039 67.0084 15.0572C66.0738 15.9105 65.5749 16.9137 65.5749 17.9399C65.5862 19.3115 66.4872 20.6247 68.0811 21.5921C69.6751 22.5595 71.8321 23.1026 74.0806 23.1026V23.1286ZM65.5749 28.2394H82.5862V30.8337H65.5749V28.2394ZM120.011 30.8337H115.758V28.9788C113.016 30.1499 109.75 30.7793 106.402 30.7819C103.547 30.7935 100.734 30.3668 98.2204 29.5409C95.707 28.7148 93.5749 27.5164 92.0205 26.0558C90.4658 24.5952 89.5387 22.9193 89.3248 21.1827C89.1107 19.4462 89.6166 17.7046 90.7957 16.1187C91.9747 14.5326 93.7892 13.1531 96.0717 12.1073C98.3544 11.0614 101.032 10.3827 103.857 10.134C106.683 9.88503 109.565 10.074 112.24 10.6833C114.914 11.2926 117.294 12.3026 119.16 13.6203L116.035 15.3196C114.615 14.3514 112.821 13.6154 110.816 13.1787C108.81 12.7418 106.658 12.618 104.554 12.8187C102.45 13.0194 100.463 13.5381 98.7714 14.3274C97.0805 15.1169 95.7402 16.1518 94.873 17.3382C94.0057 18.5244 93.6389 19.8242 93.806 21.1191C93.9731 22.4141 94.6687 23.6629 95.8297 24.7517C96.9907 25.8406 98.5798 26.735 100.453 27.3532C102.325 27.9714 104.422 28.2939 106.551 28.2913C108.318 28.2935 110.065 28.0629 111.673 27.6151C113.28 27.1673 114.71 26.513 115.865 25.697H104.382V23.1026H120.054L120.011 30.8337ZM135.661 10.2088C138.185 10.2088 140.651 10.6653 142.75 11.5205C144.848 12.3757 146.483 13.5912 147.449 15.0134C148.414 16.4356 148.667 18.0005 148.175 19.5101C147.682 21.0199 146.467 22.4067 144.683 23.4952C142.899 24.5837 140.625 25.3249 138.15 25.6252C135.676 25.9255 133.11 25.7714 130.779 25.1824C128.448 24.5932 126.455 23.5957 125.053 22.3158C123.651 21.0359 122.903 19.5311 122.903 17.9918C122.892 16.9631 123.215 15.9434 123.854 14.9915C124.492 14.0395 125.434 13.1741 126.625 12.4456C127.815 11.717 129.23 11.1396 130.789 10.7467C132.347 10.354 134.018 10.1534 135.704 10.1569L135.661 10.2088ZM135.661 23.1805C137.344 23.1805 138.988 22.8761 140.387 22.306C141.786 21.7358 142.876 20.9255 143.52 19.9774C144.163 19.0293 144.332 17.9861 144.004 16.9795C143.675 15.973 142.865 15.0485 141.676 14.3229C140.486 13.5973 138.971 13.103 137.321 12.9029C135.671 12.7026 133.961 12.8053 132.406 13.1981C130.852 13.5908 129.524 14.2558 128.589 15.1091C127.655 15.9624 127.156 16.9656 127.156 17.9918C127.189 19.3589 128.106 20.6627 129.707 21.6197C131.307 22.5766 133.463 23.1096 135.704 23.1026L135.661 23.1805ZM127.156 28.2913H144.167V30.8856H127.156V28.2913ZM152.949 10.1569H157.202V30.7819H152.949V10.1569ZM163.092 10.1569H167.345C167.564 10.1428 167.785 10.1428 168.004 10.1569C169.785 10.039 171.587 10.1513 173.292 10.4864C174.997 10.8216 176.568 11.372 177.901 12.1019C179.235 12.8318 180.301 13.7249 181.031 14.7229C181.761 15.721 182.139 16.8016 182.139 17.8945C182.139 18.9874 181.761 20.068 181.031 21.0661C180.301 22.0641 179.235 22.9572 177.901 23.6871C176.568 24.4171 174.997 24.9674 173.292 25.3026C171.587 25.6377 169.785 25.75 168.004 25.6321H167.345V30.8208H163.092V10.1569ZM167.345 12.7512V23.0118H168.004C169.205 23.1094 170.427 23.0493 171.587 22.8354C172.747 22.6216 173.819 22.2591 174.73 21.7721C175.642 21.2852 176.372 20.685 176.873 20.0117C177.373 19.3385 177.632 18.6078 177.632 17.8686C177.632 17.1293 177.373 16.3986 176.873 15.7254C176.372 15.0522 175.642 14.452 174.73 13.965C173.819 13.4779 172.747 13.1155 171.587 12.9016C170.427 12.6878 169.205 12.6278 168.004 12.7253C167.773 12.74 167.544 12.7704 167.324 12.8161L167.345 12.7512ZM197.986 11.6487L194.839 13.1663C194.296 12.8203 193.603 12.5759 192.84 12.462C192.077 12.3481 191.277 12.3694 190.534 12.5233C189.79 12.6772 189.134 12.9574 188.642 13.3309C188.151 13.7045 187.844 14.1559 187.758 14.6321V14.8397C187.758 15.9812 189.056 16.7465 191.586 16.8503C201.325 17.2135 205.79 20.0024 205.79 23.6864V23.9198C205.539 25.3779 204.606 26.7612 203.103 27.9053C201.6 29.0494 199.59 29.9059 197.312 30.3733C195.034 30.8405 192.584 30.8989 190.254 30.5412C187.923 30.1837 185.809 29.4253 184.165 28.3562L187.418 26.8255C188.175 27.3206 189.1 27.7093 190.128 27.9647C191.156 28.22 192.263 28.3359 193.372 28.3043C195.42 28.3702 197.431 27.9508 198.984 27.1337C200.537 26.3168 201.513 25.1653 201.708 23.9198V23.7382C201.708 20.2748 196.136 19.6392 191.31 19.3538C186.844 19.0944 183.633 17.3951 183.633 14.9435V14.8397C183.791 13.5633 184.745 12.3725 186.301 11.5132C187.856 10.6539 189.892 10.1915 191.99 10.2218C193.102 10.2018 194.208 10.3241 195.237 10.5811C196.266 10.8381 197.196 11.2238 197.965 11.7135L197.986 11.6487ZM222.44 28.1486C227.735 28.1486 231.924 24.6592 231.924 20.3656V9.98828H236.177V20.3656C236.177 26.0731 230.053 30.6781 222.525 30.6781C214.998 30.6781 208.874 26.0731 208.874 20.3656V9.98828H213.126V20.3656C212.956 24.7241 217.145 28.2135 222.419 28.2135L222.44 28.1486ZM268.817 30.7429H264.564V17.901L254.762 25.684L244.959 17.901V30.7819H240.706V10.1569L254.74 21.4293L268.775 10.1569L268.817 30.7429Z" fill="#434343"/>
<path d="M23.4078 7.05658C23.4078 5.18506 22.1892 3.39018 20.0198 2.06683C17.8504 0.743458 14.9081 0 11.8401 0C8.77219 0 5.82992 0.743458 3.66055 2.06683C1.49119 3.39018 0.272461 5.18506 0.272461 7.05658V28.395L9.79878 32.5589V42.7027H13.8815V32.5589L23.4078 28.395V7.05658ZM19.3251 18.9905L13.8815 22.3113V19.1981L19.3251 15.8773V18.9905ZM4.44022 15.8773L9.88383 19.1981V22.3113L4.44022 18.9905V15.8773ZM19.3251 12.349L11.8401 16.9151L4.35517 12.2453V9.13205L11.8401 13.6981L19.3251 9.13205V12.349ZM11.8401 2.49056C13.4863 2.495 15.0847 2.82851 16.3904 3.43999C17.6963 4.05148 18.6374 4.90722 19.0699 5.87616L11.8401 10.2736L4.61034 5.87616C5.02699 4.89758 5.96139 4.03023 7.26862 3.40871C8.57586 2.78717 10.1828 2.44618 11.8401 2.43866V2.49056ZM4.35517 27.1367V22.4669L9.79878 25.7877V29.4976L4.35517 27.1367ZM13.8815 29.5105V25.7877L19.3251 22.4669V27.1237L13.8815 29.5105Z" fill="#434343"/>
</svg>
