<svg width="50" height="32" viewBox="0 0 50 32" fill="none" xmlns="http://www.w3.org/2000/svg">
<path d="M29.3635 23.8644H20.6143V8.14062H29.3635V23.8644Z" fill="#FF5F00"/>
<path d="M21.1748 16.001C21.1748 12.8113 22.6682 9.97008 24.9938 8.13907C23.2931 6.80014 21.1468 6.00098 18.8142 6.00098C13.2919 6.00098 8.81543 10.4781 8.81543 16.001C8.81543 21.5239 13.2919 26.001 18.8142 26.001C21.1468 26.001 23.2931 25.2018 24.9938 23.8629C22.6682 22.0319 21.1748 19.1906 21.1748 16.001Z" fill="#EB001B"/>
<path d="M41.1634 16.001C41.1634 21.5239 36.687 26.001 31.1647 26.001C28.832 26.001 26.6857 25.2018 24.9844 23.8629C27.3107 22.0319 28.8041 19.1906 28.8041 16.001C28.8041 12.8113 27.3107 9.97008 24.9844 8.13907C26.6857 6.80014 28.832 6.00098 31.1647 6.00098C36.687 6.00098 41.1634 10.4781 41.1634 16.001Z" fill="#F79E1B"/>
<path d="M16.3398 16.0641C16.3398 15.6273 16.6261 15.2685 17.0938 15.2685C17.5407 15.2685 17.8424 15.6118 17.8424 16.0641C17.8424 16.5164 17.5407 16.8597 17.0938 16.8597C16.6261 16.8597 16.3398 16.5009 16.3398 16.0641ZM18.3518 16.0641V14.8216H17.8115V15.1233C17.6401 14.8995 17.38 14.7591 17.0266 14.7591C16.3297 14.7591 15.7834 15.3054 15.7834 16.0641C15.7834 16.8234 16.3297 17.3691 17.0266 17.3691C17.38 17.3691 17.6401 17.2287 17.8115 17.0049V17.3067H18.3518V16.0641ZM36.6116 16.0641C36.6116 15.6273 36.8979 15.2685 37.3656 15.2685C37.8131 15.2685 38.1142 15.6118 38.1142 16.0641C38.1142 16.5164 37.8131 16.8597 37.3656 16.8597C36.8979 16.8597 36.6116 16.5009 36.6116 16.0641ZM38.6242 16.0641V13.8236H38.0833V15.1233C37.9119 14.8995 37.6518 14.7591 37.2984 14.7591C36.6015 14.7591 36.0552 15.3054 36.0552 16.0641C36.0552 16.8234 36.6015 17.3691 37.2984 17.3691C37.6518 17.3691 37.9119 17.2287 38.0833 17.0049V17.3067H38.6242V16.0641ZM25.0591 15.2429C25.4072 15.2429 25.631 15.4613 25.6881 15.8457H24.3985C24.4563 15.4869 24.6741 15.2429 25.0591 15.2429ZM25.0698 14.7591C24.3414 14.7591 23.832 15.2893 23.832 16.0641C23.832 16.8544 24.3622 17.3691 25.1061 17.3691C25.4804 17.3691 25.8232 17.2757 26.1249 17.021L25.8601 16.6205C25.6518 16.7865 25.3864 16.8806 25.1371 16.8806C24.7889 16.8806 24.4717 16.7193 24.3938 16.2718H26.2392C26.2445 16.2045 26.2499 16.1367 26.2499 16.0641C26.2445 15.2893 25.7661 14.7591 25.0698 14.7591ZM31.5944 16.0641C31.5944 15.6273 31.8806 15.2685 32.3484 15.2685C32.7953 15.2685 33.097 15.6118 33.097 16.0641C33.097 16.5164 32.7953 16.8597 32.3484 16.8597C31.8806 16.8597 31.5944 16.5009 31.5944 16.0641ZM33.6064 16.0641V14.8216H33.0661V15.1233C32.8941 14.8995 32.6346 14.7591 32.2811 14.7591C31.5843 14.7591 31.038 15.3054 31.038 16.0641C31.038 16.8234 31.5843 17.3691 32.2811 17.3691C32.6346 17.3691 32.8941 17.2287 33.0661 17.0049V17.3067H33.6064V16.0641ZM28.5428 16.0641C28.5428 16.8181 29.0676 17.3691 29.8686 17.3691C30.2429 17.3691 30.4923 17.2858 30.7625 17.0728L30.503 16.636C30.3001 16.7818 30.087 16.8597 29.8526 16.8597C29.4211 16.8544 29.1039 16.5426 29.1039 16.0641C29.1039 15.5857 29.4211 15.2738 29.8526 15.2685C30.087 15.2685 30.3001 15.3464 30.503 15.4922L30.7625 15.0554C30.4923 14.8424 30.2429 14.7591 29.8686 14.7591C29.0676 14.7591 28.5428 15.3101 28.5428 16.0641ZM35.5095 14.7591C35.1977 14.7591 34.9948 14.9049 34.8543 15.1233V14.8216H34.3187V17.3067H34.8597V15.9135C34.8597 15.5023 35.0364 15.2738 35.3899 15.2738C35.4994 15.2738 35.6136 15.2893 35.7279 15.3363L35.8945 14.8269C35.7749 14.7799 35.619 14.7591 35.5095 14.7591ZM21.0244 15.0191C20.7643 14.8477 20.4061 14.7591 20.0109 14.7591C19.3813 14.7591 18.9761 15.0608 18.9761 15.5547C18.9761 15.96 19.2778 16.2099 19.8336 16.2879L20.0889 16.3242C20.3853 16.3658 20.5251 16.4438 20.5251 16.5842C20.5251 16.7764 20.3275 16.8859 19.9586 16.8859C19.5843 16.8859 19.3141 16.7663 19.132 16.6259L18.8773 17.0466C19.1736 17.265 19.548 17.3691 19.9532 17.3691C20.6709 17.3691 21.0869 17.0311 21.0869 16.558C21.0869 16.1212 20.7596 15.8927 20.2186 15.8148L19.9639 15.7779C19.7301 15.7469 19.5426 15.7005 19.5426 15.5339C19.5426 15.3518 19.7193 15.2429 20.0157 15.2429C20.3329 15.2429 20.64 15.3625 20.7905 15.4559L21.0244 15.0191ZM27.9965 14.7591C27.6846 14.7591 27.4817 14.9049 27.3419 15.1233V14.8216H26.8063V17.3067H27.3466V15.9135C27.3466 15.5023 27.5234 15.2738 27.8769 15.2738C27.9864 15.2738 28.1006 15.2893 28.2149 15.3363L28.3815 14.8269C28.2619 14.7799 28.106 14.7591 27.9965 14.7591ZM23.3851 14.8216H22.5014V14.0676H21.9551V14.8216H21.4511V15.3155H21.9551V16.4491C21.9551 17.0258 22.1789 17.3691 22.818 17.3691C23.0525 17.3691 23.3226 17.2965 23.494 17.1769L23.3381 16.7139C23.1768 16.8074 23.0001 16.8544 22.8596 16.8544C22.5895 16.8544 22.5014 16.6878 22.5014 16.4384V15.3155H23.3851V14.8216ZM15.3056 17.3067V15.7469C15.3056 15.1596 14.9312 14.7644 14.3278 14.7591C14.0106 14.7537 13.6833 14.8525 13.4542 15.2012C13.2828 14.9257 13.0127 14.7591 12.633 14.7591C12.3676 14.7591 12.1081 14.837 11.9052 15.128V14.8216H11.3643V17.3067H11.91V15.929C11.91 15.4976 12.1492 15.2685 12.5187 15.2685C12.8776 15.2685 13.0591 15.5023 13.0591 15.9237V17.3067H13.6054V15.929C13.6054 15.4976 13.8547 15.2685 14.2136 15.2685C14.5825 15.2685 14.7593 15.5023 14.7593 15.9237V17.3067H15.3056Z" fill="white"/>
</svg>
