<svg width="50" height="32" viewBox="0 0 50 32" fill="none" xmlns="http://www.w3.org/2000/svg">
<path d="M22.4669 21.5355H19.3887L21.314 10.5H24.3921L22.4669 21.5355Z" fill="#00579F"/>
<path d="M33.6256 10.7696C33.0184 10.5463 32.0554 10.2998 30.8646 10.2998C27.8247 10.2998 25.684 11.8024 25.6709 13.9507C25.6457 15.5358 27.2036 16.4161 28.3688 16.9446C29.5597 17.4846 29.9645 17.8371 29.9645 18.3185C29.9524 19.0578 29.0022 19.3986 28.1159 19.3986C26.8869 19.3986 26.2284 19.2229 25.2277 18.8116L24.8224 18.6353L24.3916 21.1125C25.1136 21.4174 26.4437 21.6879 27.8247 21.6998C31.0546 21.6998 33.1574 20.2204 33.1823 17.9311C33.1946 16.6748 32.372 15.7122 30.5985 14.9257C29.5218 14.4207 28.8625 14.0802 28.8625 13.5636C28.8751 13.0939 29.4201 12.6129 30.6355 12.6129C31.6362 12.5893 32.3715 12.8123 32.9285 13.0354L33.2069 13.1526L33.6256 10.7696V10.7696Z" fill="#00579F"/>
<path d="M37.7167 17.626C37.9702 16.992 38.9457 14.5384 38.9457 14.5384C38.9329 14.5619 39.1987 13.8927 39.3507 13.4819L39.5658 14.4327C39.5658 14.4327 40.1487 17.0743 40.2753 17.626C39.7942 17.626 38.3247 17.626 37.7167 17.626ZM41.5164 10.5H39.1354C38.4011 10.5 37.8433 10.6994 37.5265 11.4156L32.9541 21.5353H36.184C36.184 21.5353 36.7158 20.1733 36.8301 19.88C37.1844 19.88 40.3265 19.88 40.7823 19.88C40.8707 20.2674 41.1496 21.5353 41.1496 21.5353H43.9998L41.5164 10.5V10.5Z" fill="#00579F"/>
<path d="M16.8168 10.5L13.8021 18.0252L13.4727 16.499C12.9154 14.7379 11.1674 12.8246 9.2168 11.8733L11.9781 21.5238H15.2333L20.0718 10.5H16.8168V10.5Z" fill="#00579F"/>
<path d="M11.0033 10.5H6.05067L6 10.723C9.86336 11.6388 12.422 13.8462 13.4732 16.4994L12.3966 11.4276C12.2193 10.7228 11.6746 10.5232 11.0033 10.5Z" fill="#FAA61A"/>
</svg>
